<svg id="Слой_1" data-name="Слой 1" xmlns="http://www.w3.org/2000/svg" viewBox="0 0 2527.26 271.72"><defs><style>.cls-1{fill:#08089b}</style></defs><path class="cls-1" d="M-260.4 297c-.25.49 1.82.8 2.54.78s1.79-1.45 2-2.06 6.25-.22 8.5.12a17.5 17.5 0 014.13 1 52.83 52.83 0 01-5.21.95 5.65 5.65 0 00-2.53.81c0 .11 3.7.79 5.19 1s5.45-1.55 6.61-2.39 8-.68 10-.41 3 1.64 2.77 2.17 1.73 1.71 2.5 2 14.35.73 19.27.81 16.16.81 19 .47a134 134 0 0115.52-.06 31 31 0 015.85.85c.18.2-.79 1.62-1.16 2s-5.72-1.62-7.76-1.18-9.2.29-11.24 0a13.68 13.68 0 00-6 .94c-.57.37-2.19-.21-2.53-.47s-1.68.29-2.08.58-5 .13-10.18-.36l-4.63-.29c-4.64-.29-9.16.52-14-.82l-4.36-1.22c-5.32.79-9.58 3.94-9.55 4.62s1 1.43 1.25 1.48 14.88-1.33 20.2-.06 14.16 4.9 16 4.52 8.3 1.83 10.25 1.76 6.84-.4 10.87-.72l4.08 1.77c3.11 1.35 7.38 0 11.14-.12q11.69-.43 23.36-.85l1.51-.05c1.81 0 3.38 2.43 3.4 3.08s4.34-1.16 6-2.06a5 5 0 014.78.54c.5.61 9.94.74 13.18.58s14.25-1.1 17.4-1 6.4.05 6.71.1 5.14 2.55 7 2.08 15.59-1.42 20.16-2.12a198.41 198.41 0 0120.13-1.62l5.9-.22c1.34-.05 3.22.44 3.93-.26 3.22-3.18 7.18-1 10.65-1.89s6.79-2.22 10.55-2.08c4.55.17 9.5.81 13.6-.65 7.49-2.68 15.57-2.33 22.9-5.37l1.4-.58c1.81.25 7.4 2.63 9.13 2.31a9.82 9.82 0 004.27-2.29c.25-.4 12.77-1.87 17.13-1.67s8.74-2.58 9.1-3.85 4.89-3.06 6.65-3.35 5.65-.83 8.64-1.2l2.59.45 2.64.45a59.65 59.65 0 007.8-1.76c.75-.33 3.44-1.05 4.66-.71s2.37.46 2.69.19 7.74-1.62 16.5-3c0 0 2.83-.44 12.34-.2a14.93 14.93 0 009.35-2.87l.31-.22c.42-.12 3.65 2.09 4.51 1.08s10 .75 13.52.27 8-3.44 8.72-4.7 3.9-.13 4.72.58 6.92.68 9.08.43 10.47-1.24 13-1.52 6-.18 6.81-.46 5.94-3.07 7.8-2.89 8.11-1.72 10-1.56a4.72 4.72 0 013.34 2.39c0 .36-5.79 2.27-12.9 4.24l-6.49.86-6.27.84c-6.72 1.53-22.18.24-25.94 1.48s-4.91 4.18-4.56 4.53 1.9.24 3.46-.23l1.32-.47c1.44-.51 2.89 2.88 4.49 0l.12-.22c2.44 1 5.82.62 7.51-.77l2.71 1.07 2.23.89c2.84-.35 7.46-1.11 10.26-1.69l2.51-.23c1.1-.11 2.31 1.2 3.45 1.17h1.1c1.19-.77 12.67-1.88 16.65-2s17.57-.51 21.37-1.28a108.51 108.51 0 0115-1.69l4-.15 12.08-.44c4.3-.16 8.78-1.15 12.83-.24l3.91.88c3.8-.91 12.68-1.31 14.91-1.49s8.95.18 10.81.33 21.38.8 28.21.74 14.78-.73 17.65-1.5l3.17.92 3.18.93a176.15 176.15 0 0119.2-.62c3.3.15 11.13 1.09 13.28.75a67.77 67.77 0 0111 0c1.95.27 12.61.9 16.06 1s17.09 1.28 21.31 1.21 17 .92 20.61.93 13.81.4 22.66.85a164.43 164.43 0 0017.12-.41c5.09-.33 10.2-.41 15.3-.57 1.58 0 3.61-.59 4.65.17l3 2.21c3.4-.68 10.94-.42 12.76-.26s9.45.57 11.59 1.62a8.62 8.62 0 005.91.28c.45-.36 5-.05 10 .68l4.63-.28 4.55-.27c5.07-.81 11.39.65 12.22 1.47s8.73 2.23 17.54 3.16c0 0 4 .42 14.08-1.16a47.43 47.43 0 016.43-.27c1.33 0 3-.5 3.92.08 4.58 2.79 9.68 1.58 13.92.55 5.43-1.33 10.3-2.33 15.71-.4l1.3.47c2.13-1.09 12.32-.53 15.6-1.33a30.15 30.15 0 0112 0l3-.27 3-.26c3.3-.76 10 0 11.48-.58s9.18.39 11.6-.18a24.61 24.61 0 018.45.21c1.11.34 6-1.13 7.24-1.71s4.8 1.08 5.54 1.72 3-.05 3.45-.36 3.38-.48 6.52-.37l2.48-2.1.56-.47c1.34.37 12.5 2.38 16 .81s7.91-2.1 8.57-1.77 3.17-1.27 4.05-2.11 1.75 2.38 1.79 3.5 8.41 1.72 11.35 1.59 12.87-1.17 15.83-1.72 2.74-2.37 2-2.77-3.62 1.45-4.56.76-8.41 3-11.28 2.73-5.3-2.85-5.32-3.52 8.58-2.82 11.87-3.43 4.67-3.73 4.23-4.6 3-2.69 3.92-1.87 1 3.5.73 4.22 11.46-.06 15.76-.55 8.18-2 8.37-2.5 1.4-1 1.85-1.06.94 3.1 1 4.3-1.55 2.27-3.54 2.38l-1.74-.15c-2.13-.19-4.31.26-6.44.12-1.73-.12-2.88 2-5.15.67l-.93-.56c-2.53 1.63 2.48 3.55 5.12 3.77s5.05-.07 5.37-.64l.62-.07c2.39-.27 4.85-.05 7.23-.4l2.21-.34c2.38-.75 16.1-2.12 20.52-2.77a72.16 72.16 0 019.31-1l.31-.28 2.88-2.65a66.66 66.66 0 0014.13-.9c2.07-.51 5.16-3.89 6.86-7.5l3 .8a7.62 7.62 0 005.92-.78c3.23-1.71 6.5-1.61 9.84-1.78 1.88-.1 4.11.49 5.58-.33l6-3.32c7.08 1.29 9.52 4.07 8.13 4.78s-.67 2.2 1.6 3.3l2.26-1.71 1.68-1.27a16.74 16.74 0 016.72.28c.56.31 2.14-.52 2.45-.82s5.19.1 7.48-.64 2-2.75 1.33-3.19.05-2.34.41-2.77 2.65-.84 5.1-.92l2.14-.11c2.31-.12 4.46-.15 6.67-1.64l1.15-.77c2.62 1 9.34.22 14.93-1.78l4.45 1.62.3.11a22.46 22.46 0 01-.72 3c-.18.6 1.33 1.61 1.53 1.67s-1.28 1.87-2 2.64-2.39-.26-3-1.17-1.4.88-1.5 1.68-1.53 2-1.93 2.15.32 1.79.71 2.37 2.9-.24 3.58-.65 2.36.06 2.84.4 4.69.29 9.33-.12l4.24.39 4.38.4a52.72 52.72 0 0117.27-1.92l4.11-1.44 4-1.39c4.57-.41 7.25-1.85 7-2.06a10.59 10.59 0 01.39-3.21c.2-.72-2.23-1.22-3-1.19s-.66 1.36-.45 1.77-.78 1.89-1.31 2.42-2.27-2.05-2.69-3 4.48-4 6.26-3.69a14.73 14.73 0 006.23-1.16c.78-.44 1.63 1.77 1.69 2.47s-1.48 3.16-2.15 3.94 2.38 1.31 3.35 1.27 2.23-1.59 2.38-2.05 2.44-1.31 3.22-1.48.41-1.51.19-1.78 1.78 0 4.44.63l2.85-1.79 2.29-1.44c3.62-.33 9.33-.85 10.37.14s-.28 2.19-1.13 2.34-1.4 1.65-1.35 2.11 3.7.7 5.09.65 3.69-2.11 4.2-3a13.06 13.06 0 013.78-3 3.89 3.89 0 012.9.38c.33.28 1.64-.41 2-.75s4.74 1.85 6.11 2.69 7.14 1.81 12.8 2.15l3.88-4.31c.38-.42 1.54-.2 2.34-.15h.48a6.4 6.4 0 011.64 2.3c.2.53 1.64.6 2.06.48s-.15-1.6-.56-2.22 9 .23 12.33.7 7 .14 7.5-.27 3-.23 5.56.41l2.27.14c6.38.39 13 .93 19.13-.53l4.93-1.18c5 .43 13.33 1.8 15.07 1.93s4.49.18 5.22-.29 3.65.82 4.67 1.56 4.3.82 5.53 1.12 8.55-2.5 11.17-2.13 5.44.74 5.74.9a7.14 7.14 0 01.63 2.74c0 .68-1.41 2.1-3.17 3.16l-1.65.33c-1.46.28-3.2-.76-4.61-.42-3.56.88-6.89 1.92-10.45-.32l-1.14-.72c-2 .39-7.13 1.06-11.46 1.49l-1.64-.16a33.83 33.83 0 00-4.72-.12l-4.17.17c-4.59.66-.85 1.51 1.92 1.94s9.33 1.41 14.57 2.18l4.75 1 4.52.9c5.07-1.11 10.41-.92 11-.41s5.76-2.24 7.69-1.23 6.64-3.64 9-4.44 2.6-2 1.83-2.27.42-1.64 1-2 5.7-.82 7.61-.89 3.35 1.33 3.31 1.78-3.9 1.16-5.29 1.28a4.36 4.36 0 00-2.65 1c0 .21 3.8 1.82 5.27 2.36a3 3 0 003.35-1.31c.17-.6 2.6 1.8 3.46 2.88s3.16-1.68 3.68-2.85-1.86-2.6-2.73-2.75a2.3 2.3 0 01-1.54-.78c0-.14 7.67-.54 10.65-.65s5.17 1.38 5.1 1.87-2.14.95-2.8 1-2.24 3.05-2.7 4.37 1.5 1.91 2.07 1.8.94-2.46.91-3.25 2.67-1.25 3.86-1.18-.52 2.49-1.13 3 3.14 1.87 4.76 2.21 2.46.19 2.28 0 1.33-.93 1.93-1.15-.92-1.94-1.41-2.32.26-.72.69-.74 2.3-2.64 3-3.78 1.78 1 1.93 1.82 2.63 1.8 3.49 1.93.29 1.61-.06 2-2.55 0-3.24-.19a1.6 1.6 0 00-1.62.41c-.09.23 2.11 1.61 2.92 2s5.08-1.91 6.29-2.81a6.58 6.58 0 002.11-3.95c0-.78 3.14-1.19 4.21-1.11s1.83 1.54 1.8 1.91-2 1-2.66 1.15-1.15 2.54-1.12 3.37 4.6.19 6.65.51 1-.55.16-.91 3.48-2.39 5-1.68 6 1.14 9.8.94l3.48.1 3 .09a69.14 69.14 0 0012.1 1h3c9.71-.15 13-.05 13-.05 8.87.26 16.38.41 16.71.35l.2.11 5 2.74c5.76-1 12.26-2.12 13.07-2.56s2.53.56 3.08 1.27 4.43.5 5.65.22a11.67 11.67 0 015.08.85c.89.43 4.72-.59 6.08.07s3.79-1 4.41-2 1.25 1.73 1.28 2.52-7 2.49-9.63 2.57-3.22 1.65-2.71 2.13 5.69.69 7.68.61 3.39 1.6 3.31 2.16-1.39 0-1.81-.39-1.85 1.84-2.3 2.89 6.75.65 9.24.36 5.59.58 6.08 1.08-11.12 1.35-15.5 1.51-8-1.1-8-1.65 2.83-1.11 3.76-1.15.92-1.65.62-2.26-2.2.13-4.22 1.65l-2.13-1.6-.34-.26c-.89 0-.3 2.83.09 3.66a2.12 2.12 0 01-.62 2.11c-.25.12-2.19-2.73-2.76-3.68s-6.15-.74-7.94-.4 1.21 2.47 2.84 2.66-7 .72-10.45.85-6.29 2.62-6.3 3.31-2.62 1.13-3.39.78.12-1.74.72-2.17.26-1.64 0-1.87.27-2.48.52-3.3-.86-.73-2.49.18h-1.11l-3.59.1c-3.93-.52-14.07-1.74-16.64-1.38a32 32 0 01-8.31-.56c-.71-.24-4.29 1.25-5.2 1.76s-4.66.1-8.32-.91l-3.19-.43a22.17 22.17 0 00-7.22.26l-2.78.56a41.91 41.91 0 00-8.56-2.18l-2 .29c-8.65 1.25-9.92 1.12-9.92 1.12-8.82-.91-20.91-2.1-26.88-2.64l-5.46-.1h-1.67c-1.06-.54-6.92.24-8.48.62s3.08 2.95 10.32 5.71l6.42-2.21 2.35-.81a51.53 51.53 0 009-1.51l1.17 1 2.74 2.39c4.07-.3 7.59-.18 7.91.42s5 .15 6.45-.15 4.27 1.26 4.69 1.7 5.08-1 6.69-1.62 6.7 1 8.16 1.85a4.86 4.86 0 004.68-.5c.68-.69 1.71 1.21 1.85 2s2.8 2.38 3.68 2.72a5.17 5.17 0 003.3-.71c.46-.35 2.55.26 3.18.59s2.71-.39 3.29-.75 2.73.19 3.3.47 5.47-2 7.08-2.86a7.16 7.16 0 013.44-1.12c.14.15-1.49 2.39-2.19 3.25s2.36 2.74 3.62 3.11 13 .08 17 .65a135.8 135.8 0 0014.23.67 15.21 15.21 0 014.39.42c.27.24-1.29 1.8-1.93 2.29s-2.4-.17-2.74-.46-11.86-.13-16.14 0-9.3-.35-11.16-1.07l-1.64.08-1.9.09c-2 .84-4.58.76-5 .48s-2 2.06-2.53 3-3.29 1.8-4.26 1.84-2.24 1.71-2.4 2.22-2.42 1-3.16 1-2.44-1.47-2.87-2.07-4.49-.77-6-.63a1.26 1.26 0 00-1 2c.39.41-1 .93-1.48 1s-1.53-1.7-1.77-2.31-2.93-.25-3.84.06a10.68 10.68 0 01-4.54-.37c-1.1-.35-.11 1.44.23 1.82s-1.43 2-2.28 2.57-2-1.91-2.21-2.78a8 8 0 00-2.33-3.05c-.59-.42 2.13-3 3.29-3.7a1.48 1.48 0 012.17.6c0 .36 1 .89 1.39 1s4-.91 4.34-2.35-2.64-1.49-3.76-1.14-6-.82-7.91-1a16.24 16.24 0 01-4.17-.83 45.92 45.92 0 00-5.49 2.44c-1.49.75-3.61-.11-4.72-1.92l-.84-1.43-.53-.88c-.78-1.49-3.35 1.6-3.91 2.86s-4.46 2.24-5.79 2.21a4.23 4.23 0 01-2.43-.58 7.25 7.25 0 011.85-1c.52-.21-.13-2.36-.51-3.07s-3.1 1.67-4 2.78-2.45 1.45-2.77 1.22-1.06 1.15-1.21 1.61-5.33.24-7.18 0-4 1.8-4.22 2.4-1.29-.76-1.58-1.33-3.31-1.07-4.29-1.17a40.08 40.08 0 01-3.84-1.18c-.59-.12-1.2 1.58-1.26 2.31s.6.78 1.45.1l.42-.37.44-.4c.55-.36.92 2.11 1 3s-2.39.73-3.19.45-1.36 2.52-1.31 3.75.73 2.4 1.39 2.57-.79 2.7-1.54 3.61-1.49-1.73-1.52-2.64-7.07-4.69-9.57-4.34-5.11 2.5-5.28 3-1.51.83-1.89.78-1.22-2.42-1.41-3.23-4.18-1.18-5.54-.91-1.44-2-1-3 2.85-2.23 3.71-2.4 0-1.75-.4-2.16-6.94-.2-9.1.24a25.26 25.26 0 01-7.62-.21c-1-.27-.15 2.87.26 3.69s-.49 2.76-.82 3.11-7.28 1.6-9.82 2a22.73 22.73 0 01-6.15.17c-.65-.2-9.39.57-12.5 1s-10.79 1.46-12.8 1.72-3.73-2-3.77-3.09 2.23-2.46 3-2.63 1.36-1.47 1.35-1.77-3 0-4.17.12-10.69-2-13.94-1.52-5.82 3.54-5.79 4.38 5.55.69 7.44.3 6.94.31 8.12.65.93 1.93.45 2.44-3.18 1-4.14 1.05-2.26 1.77-2.44 2.35-4 .32-5.31.11-7.1 1.52-8.77.75a2.07 2.07 0 00-2.95 1.15c0 .56 4.25.86 9.4.67l4.53-.17c3-.1 6.71-1.4 8.68-.06l3.52 2.38c2.61-1.72 5.82-2.22 6.14-2s1.47-.37 1.85-.73 5.45 1.21 7 .73 7.39-.46 8.6-.36 19.55.42 26 .94 13.13 1.3 13.68 1.43.59.92.44 1.18-3.25-.31-4.35-.56-5.61.83-6.82.4-3.67.71-4.25 1.31-3.13-.62-4-1.29-3.81 1.79-4.45 2.63-10.17 2.72-13.28 2.94a56.67 56.67 0 00-12.05 2.67l-3.86-1-3.61-1c-4.83.14-9.27.59-9.82 1s-2.2-.33-2.53-.6-2.87-.55-5.64-.6l-2.67 1.65c-2.19 1.35-5.75.47-8.7.58l-3.22.11c-3.54.11-10.81 0-12.46-.15a41.21 41.21 0 00-8.16 1 2.78 2.78 0 00-2 2.49c.14.39 5.63.51 12.2.27l5.9-.21 5.9-.22c6.48-.29 19.63-1 22.53-.87a62.59 62.59 0 019.31 1.4c1 .3-1.16 2.74-2.38 3.61s-4.84 1.1-6 .88-4.73.75-5.94 1.3-7.52-1.44-9.05 0-7.88.21-9.67 1.61 8.61 5.37 13.19 5 13.69 1.84 15.87 1.39 4.45-1.42 5-2.14l.58-.56.7-.7c.63-.51 5.31-.43 6.61-.32s5.35-1 6.41-1.05 6.87-.32 8.68-.36a10.13 10.13 0 004.84-1.86c.33-.39-.19-1.65-.45-2s6.83-1.73 9.58-2.17 8.07 1.13 9.48 2 5.56 1.5 6.85 1.46 3.83 3.75 4.33 5.05 8.54 2.08 11.45 2 3.3-4.87 2.62-6.49 4.57-4.76 6.33-4.28 3.47-.31 3.61-.87-6-1.57-8.44-1.37-3.47 2.1-3.22 2.62-.89 1.15-2.56 1.39l-.93 1.25-.28.3c-1.27-.36-1.52-2.76-1.25-3.45s-1.88-1.6-2.68-1.72 5.6-.79 8.24-1.18a32.09 32.09 0 016.8-.4l.3-.4c2-2.74 4.91-1.71 7.38-1.73h3c3.37.59 10.24 2.39 12 1.77s7.93-3.59 9.85-3.36a7.74 7.74 0 014.41 2.81c.22.55 6-.23 8-.54s4.14-.12 4.54.44h.39l5.55-.13c6.31-.25 12.44-1.49 12.94-2s14.91 2.54 20.14 2 12.68.93 13.57 1.47 2.21-1 2.39-1.55 6-1.25 8.16-1.33 9.82 3.61 12.49 3.61 6.15-1.49 6.7-2.13 1.67 1.5 1.88 2.36 4.39.71 4.68-.61 4-.28 5.14.46a10 10 0 004.84 1.24h1.34l3.21-.12c3.51-.23 15.17-2.41 18.46-1.94s10.26 1.22 12.17.8a13 13 0 016.09.48c1 .47 4.51-.26 5.6-.7s3.58 1.06 4 1.56 7.23 1.24 9.39 1.34 9.46-.43 11.58-1.32 2.9.43 2.68.9 1 .81 1.52.79 1.21-1.53 1.3-1.92 5.38 1.94 7.23 2.87 5.36.19 6.28-.51 2.46.67 2.66 1.18 6-1 8.22-1.4 4.59.69 4.76 1.13 2.36.73 3 .71 1.72-1.74 1.91-2.36 2.53-.13 3.24.19 3.22-.42 3.91-.78 3.63 2.29 4.74 2.89 2.32-1.24 2.43-2.15 1.76.32 2.24 1a7 7 0 002.93 2.05 1.19 1.19 0 001.1-.65c0-.19-1.5-.59-2.08-.68a1.17 1.17 0 00-1.07.45c0 .09-.05-1.74-.07-2.12s3.9-.13 5 .37 3.14 2.49 3.69 2.51.78-1.74.7-2.44-1.57.25-1.85.45a19.36 19.36 0 012.22-2.59c.53-.44 1.56 2.31 1.75 3.32s6.81-1.26 9.25-.5 8.67 4.59 10.73 4.39a32.85 32.85 0 015.56-.23l.68-.3 1.12-.49c1.16-.86 4.29.87 5.06 1.73s-4.24 3.35-11.15 5.51l-6.18-4.64c-.34-.25-1 0-1.58 0-10.48 1-15.22 1.45-15.22 1.45-8.83.8-18.15-.16-18.9-.74s-1.75.66-1.86 1.14-5.78 1.08-7.89 1.16-6.18 3-7 3.77a10 10 0 01-4 1.55c-.56 0-1.71-1.56-2-2.24s-6.59 0-8.92.43a57.19 57.19 0 01-11.51.39l-3.35 2.36-.81.57c-2-.8-3.65-1.41-3.63-1.36l-.22.08c-7.85 2.76-8.44 2.75-8.44 2.75-8.86-.21-14.85.86-14.56 1.13s4-.09 5.21-.28 10.71-.8 14-.93 14.68-.64 17.92-.1 6.28 1.22 6.47 1.54-2.69 1.15-3.8 1.37a3.17 3.17 0 00-1.93.9c0 .14 9.33 1.37 12.69 1.78s13.51-.54 16.1-1a18.35 18.35 0 017.21.47c.69.34 6.66-1.25 8.69-1.13a71 71 0 0011.28-1.33c2.27-.53 5 1.09 5.5 2.18s4 1.09 7.81 0l2-1.68 3.28-2.81c2.51 1.56 6.27 1.62 6.73 1.3s2 .27 2.29.51 18.39-.13 24.82-.37 17.3-3.2 18.89-4 3.65-.23 3.93.22-.08 1.58-.29 1.85.75 1.72 1.14 2.15 4.34-1.83 5.92-1.46 5.17 1 8 1.32l2.52.27 2.75.3a30.15 30.15 0 0011.54-1.56l2 1c3 1.48 5.62 1 8.4 1 4.29 0 8.59-.44 12.88-.37h2.75a19 19 0 006.65.08 24.68 24.68 0 014.7.49c.92.17 7.91.23 10.27.12a20.74 20.74 0 015.13.18c.23.2-.69 1.58-1.17 2.09s-9.71-.66-13.09 0-9.49 2.48-10.77 2.29-6.74 1.73-8.57 1.51-8-.9-9.6-.51-10.16 1-19 1.29l-53.15 1.89c-1.54.05-3.3.2-4.58-.45-2.63-1.34-4.82-1.57-7.2.44-.68.57-2.34.91-2.93.49l-2.9-2.09c-3.38.38-10.1-.12-11.35.27s-4.79.29-7.87-.25l-2.78-.13c-2.14-.1-4.29.12-6.44.2-2.42.09-4.83.21-7.25.26h-2a27.2 27.2 0 00-7.74-1.32l-2 .11-3.45.19c-3.72.39-11.65 2.32-13.43 2.15s-10-1.59-12.26-.88-4.64.6-4.85.37a.6.6 0 00-.72-.08c-.09.1.49.7.74.9a.79.79 0 00.62.17s1 1.49 1.45 2 8.79 1.43 11.79 1.56 11.42.49 13.93-.16 7.76-2.19 9.37-1.89 6.74 2 8.09 1.84a80.5 80.5 0 0110.16.31c2.1.28 5.68.87 6.5.64s1.81-2.14 1.88-2.6 2.62-.93 5.65-1.06l2.65-.05 2.55-.05c3.21 0 4.59 2.47 4.26 3.11s.55 1.3 1 1.34 6.43-2.11 8.73-2 24.52 0 32.25-.06 21.29-.29 30.15-.51c0 0 12.86-.33 27.36-.86h2.06c1.35 0 2.67 2.58 2.74 3.47s5 .67 6.49.38a63.75 63.75 0 019.26.22c1.51.17 4.53 2.75 5.23 3.71s1.66-2.41 1.78-3.79 7.64.8 10.37.34 5.61.66 5.89 1.31 4.32-.93 5.84-.41l8 2.76 3-.44 3.17-.47c3.57 0 10.81-.58 12.33-1.11s9.6 1.13 12.06.17 6 .48 6.68 1.47-3.07 1.85-8.31 1.92l-4.19.43-4.4.45c-4.84.61-14.53-.41-16.74-.14s-4.58 2.11-4.77 2.66-4.45 1.16-6 1.22a5.1 5.1 0 01-3.72-2c-.24-.58-1.74-.67-2.23-.52s.09 1.38.34 1.67-.71 1.72-1.1 2.12-1.24.21-1.88-.43c-2.79 2.38-5.52.13-8.23.16-2.87 0-5.77 2.09-8.94 1.62l-1.17-.18c-1.19-.73-8 1.86-10.5 1.67a11 11 0 00-4.16.21c.07.1 13 .66 17.89.83s17 .24 20.16.07 6.2-.13 6.41.1a9 9 0 01.46 2.57c0 .58-2.65 2.07-3.64 2.44s-4.84-.44-8.54-1.81l-3.25.36-3.3.36a96 96 0 00-15.39 2l-4.22-.42-4.56-.46a102.14 102.14 0 00-12.74 3c-1.15.45-2.12 2.84-2.13 3.75s-3.35-.87-4.49-1.75-14.73-.9-19.84-.88a111.45 111.45 0 01-13-.81c-.93-.2-12.69-.94-16.86-1s-8.46-.17-9.5-.23l-.32.44c-1.6 2.23-3.9 1.35-5.9 1.48a120.52 120.52 0 01-13.69.46l-4.64-.22a128.58 128.58 0 00-14.21-.32l-2.23.59-3.09.82c-3.17-.46-8.88-1.57-10.28-1.35a26.53 26.53 0 00-5.81 1.92l-1.65.06-1.52.05c-1.92-.92-3.39 1.09-3.36 2s6.25.75 8.56 1.17 11.4.4 14.15.56 14.42-.53 18-1 9.7-1.11 13.66-1.42l3.77.76c3.47.7 7.35-.66 11.06-1.11a1.75 1.75 0 01.79 0l.23.08a6 6 0 01.5 2.18c0 .56-7.26 1.28-10.28 1.39s-2.35 1.55-1.73 1.82-.08 1.66-.54 2.11-16.56 2.19-22.63 2.61-18.28 1.12-27.14 1.54c0 0-16.61.79-33 1.39-16.11.59-32.22 1.11-32.22 1.11-8.86.29-23.32 1.36-32.13 2.39a288.6 288.6 0 01-32.39 1.67h-1.8c-1.94.11-3.84 3.07-4 4.13s-2.35-1.21-3-2.14-5.92-1.05-8-.93a2.73 2.73 0 00-2.4 3.27c.35.78-1.92 1.1-2.7 1s-.52-1.46-.3-1.76-3-1.52-4.22-1.86-4.26.63-5.08 1.13.08 1.58.65 1.83 0 1.67-.31 2-5.85 1.36-7.83 1.64a17.31 17.31 0 01-7.05-1.11c-1.28-.6-6.87 1.29-8.91 1.11s-2.4-1.87-2-2.39 7.17-1.17 9.68-1.27 4.39-1.62 4.34-2.14-3.26-.81-4.41-.77-20 1.52-26.84 2.08-13 1.42-13.22 1.85-3.63.3-4.87.12-10 .94-13 1.11-8 4.56-7.42 5.38-3.38 4.71-5.3 4.19 0-5.91 1.36-7.84-4.35-1.76-6.37-1.25-2.51 2.16-2.12 2.56-3.32.88-4.67.93-4.23-1.48-4.83-2-4.31.85-5.32 1.42a4.8 4.8 0 01-3.2.25c-.36-.2-7.37 1.08-15.57 2.84l-7.72-.81a1.94 1.94 0 00-.8 0l-.23.09a28.57 28.57 0 00-2.31 2.47c-.52.65-2.52.35-3 .08s-2.22.33-2.64.61-2.31-.46-2.76-.74-8.92 2.67-12.18 2.4-7.34.94-7.93 1.54a2.23 2.23 0 01-2.11.25c-.2-.17-2.8.25-5.76.91l-2.48.32-5.4.69c-5.93.85-22.25 1.4-26.5 2.35s-12.11 2.19-13.8 2.57a8.58 8.58 0 01-4.36-.16c-.41-.28-2.71.52-3.32.82s-7.23 2.19-14.72 4.19l-6.73 2.06c-2.34.72-4.33 2.5-6.65 3.35l-5.25 1.91c-6.08 1-18.25 2.64-27.06 3.68 0 0-1.87.23-10.71 2.34-5 1.19-10.26.51-15.44 2a72.55 72.55 0 01-10.47 2.23l-3.83.51c-4.14.87-14.74 2.33-23.56 3.24l-8.48.94a115.25 115.25 0 00-21.58 4.68l-1 .3c-1 .35-11.7 1.43-15.41 1.92s-18.7 2.8-23.35 3-15.67 2-18.58 2.17a93.45 93.45 0 00-11.12 1.84 54.3 54.3 0 01-9.48.78l-3.19.36-1.69.19c-1.79.83-9.72-.46-12.16.51s-7.48-1.12-9-.64-10 1.13-18.82 1.45l-48.34 1.66c-8.86.33-18.33.95-21 1.4l-2.68-1.84-1.48-1a23.32 23.32 0 01-11 .76l-1.91.95c-2.69 1.33-4.54-1.26-7-.26l-2.3.94a35.45 35.45 0 01-7.78-.08c-.79-.16-13.9.09-18.62.31s-20.75.93-25.24.47-14.38-3.56-16.72-3-7.95-1.13-9.14-.4-5.91.45-10.48-.63l-3.95-.5-4.87-.62c-5.37-.4-17.5-2.13-20.39-2s-7.56.6-8.58.27-7.53-2.25-9.47-3.48a12.91 12.91 0 00-7.36-1.73l-2.32-.37c-2.42-.38-4.65-1.93-7.06-2.27l-2.06-.28c-2.74.59-18.67-3.25-24.42-3.41s-16.61-.63-19-.38-7.25-2.19-8.48-1.61 0 4.16.83 5.27a6.51 6.51 0 004.12 1.92c.93 0-.91 1.45-1.46 1.77s-5.08-.06-6.38-.27-1.38-2-1-2.55-1.94-3.09-2.84-3.81-12.49-1.3-16.66-1.64a60.23 60.23 0 01-8.95-1.18l-.72-.13-5.27-.95c-6.75.1-7.76 1.81-6.59 2.22s-7.49 1.23-11 .9-12.11-1.74-14.14-1.73-7.85-1.18-9.34-1.08-7.35.36-8.92-.23-11.15-1.13-14.3-1.33-15.78-1.44-19.7-1.4-18.83-.91-23.33-.82-12.33-.05-17.4-.31l-4.66-.47a96.46 96.46 0 00-9.68-.77c-8.83.72-19.09 1.74-20.06 2.23a30.13 30.13 0 01-5 1.66l-.68-.65-2.63-2.49c-3.14.74-22.46 1.85-28.81 2.12s-28.34 1.62-34.72 2.16-23.91 3-28.72 3.15-21 2.37-25.81 2.59-14.41 1.27-16.67 1.11-9.83-.55-11.92-.22-6.21 1.24-9.16 2l-2.74.39-2.85.4c-3.05.41-9.36 2.67-10.66 2.19s-4.94-.55-8.09-.18l-2.92.11c-11 .43-16.91.61-16.91.61-8.86.28-20.94.63-22.75.75s-6.81 2.93-8.46 2.63-10.23-.27-19.09.08l-24.16.9-40.27 1.48-40.28 1.48c-13.42.49-24.15.93-24.15.93-8.86.36-35.32 1.34-42.58 1s-21.1-.84-24.11-1.06-7.12-.54-7.73-.1-3.76.47-7 .06l-2.24-.07c-11.6-.33-18.71-.33-18.71-.33-8.86 0-27.38.92-31.49.3a88.94 88.94 0 01-12.16-3.12c-1.13-.45-10-1.18-12.95-1.55s-13.24-.73-16.25-1.05-14.9-.88-18.48-1-7.35-.6-7.68-1-1.43.07-1.73.36-8.68-1.51-11.74-2.29-8-2-8.92-2.29-9.85-.73-12.8-1.64-7-2.43-7.49-3.19a1.94 1.94 0 010-2.06.6.6 0 00.07-.72c-.1-.09-.69.5-.89.74a.77.77 0 00-.18.62l-3-2.05c-.83-.57-5.14-1.09-9.58-1.18l-4.19-.76c-6.87-1.25-14-.78-21.09-1.12-2.26-.12-4.36.1-6.81-.95l-2.43-1c-3.65 1.08-7.91 2.48-9.47 3.1l-.83-.49-5.22-3.06c-6.35-.58-16.85-.38-18.76-1s-10.65-2.19-19.44-3.37c0 0-.2 0-8.39 1.36-.86.14-1.85-.8-2.81-.88l-5.81-.5c-6.22-1.41-18.33-3.55-21-3.72s-10.47-1.66-12.5-1.72-5.88-.08-8.54 0l-2-.95-2.48-1.16c-2.76-.08-8.46-.66-12.68-1.3l-3.81.16-4.07.16c-4.45 1-8.43 1.75-8.56 1.68s-1.66-1.42-2.17-1.91-5.19-.71-6.74-.66a5.09 5.09 0 00-3.41 2c-.12.39-1.85.06-3.84-.73l-.81.57-3.35 2.38A60.84 60.84 0 00-498.8 452h-3.6a10.63 10.63 0 00-5.8 1.74l-.78.48c-2.29-.83 4.19-6.52 7.27-7.22s-.18-1.17-7.24-1l-6.16-2.9-2.14-1c-3.4 1.12-7.22 2.3-7.61 2.46s-7.7.61-10.35.72-12 1.18-14.79 1.75-9.18 5.63-11.65 6.33-7.29-.07-8.39-.59-.31-3.2.22-3.88-1.27-2.94-2.21-3.67-2.5 2.33-2.82 3.86-2.89 1.56-5.7.05l-2.62-.39-3.13-.47a39.63 39.63 0 01-11.51-.14l-2.55 1.06-2.53 1.05c-3 .89-5.75 2.76-5.9 3.28s-1.36.11-1.7-.15-12.78-.87-17.4-1-12.49 0-17.51.17h-5.28c-.79-.81 2.87-2.42 4.55-2.68s6.59-1.33 8.37-.62 14-2.62 19.12-3.37 10.75-3.07 11.64-3.93 1.17-1.81.64-1.64-.28.55.55.84l.77.08h.23c-.31-.49-4.83-.91-5.76-1.32s-.56-2.1-.21-2.53 7.17.06 9.42.35a7.67 7.67 0 005.56-2.1c.37-.65-5.92-1-8.53-.88s-11.07-.14-13.46-.42-10.71 2.53-13.35 2.25-5.28-1.87-5.47-2.43-2.89-1.15-4.06-1.21-2 2.17-2 3 4.2 1.62 5.94 1.65 3.42 1.19 3.52 1.65-4 2.79-9 5.17l-5.43-3.05-1.79-1c-3 .61-6.48 2.29-6.94 2.82s1.57 2.38 2.49 2.92 1.74 2.86 1.77 3.6-1.2.67-1.68.41-6.39 3.28-8.53 2.24-6-8.49-6.77-10.85-.33-4.34 1-4.39h2c1 0 2.53 1.77 2.73 2.3s3.86-1.92 5.41-1.54 7.27.23 9 .06 2.07-1.55 1.84-1.79.38-1.84.63-2.28-1.58-3.33-2.25-4.16-.23-2.92 0-3.3a1.2 1.2 0 00-.06-1.21 11.61 11.61 0 00-2.88 1.49c-.71.49-.36 2-.09 2.28s-4.45 1.88-6.33 2.39-6.5-2.42-7.84-3.87-3.06.87-3.25 2-2.38-.9-3-1.78-7.27-3.58-9.59-4.41-10.53-3.68-13.15-3.34-4.22-.16-4-.45-1.25-.75-1.86-.83.36-1.73.82-2.22 14.26-.54 19.57-.39 16.87 3 19.62 2.41a21.71 21.71 0 007.21-3.38c.51-.55 8-1.26 10.85-1.37a14.12 14.12 0 007.38-3.16c.59-.78 7.79-2.65 10-3.06s3.29 2.19 3 3.27 2 1.87 2.73 1.84 1.59-2.45 1.72-3.31 5.95-4.73 8.11-5.92 4.36.08 4.5.86 4.49.54 6 .22a37.13 37.13 0 005.43-1.64c.73-.39 8.08-4.64 11.21-5.28s-1.77-3.07-4.15-3.26-6.67-.49-7.61-.9-.76-2.3-.41-2.85 11.39-.44 15.43-.24 8.62 2.27 9.14 3.05 2.33-2.92 1.4-4.2a8.38 8.38 0 01-1.17-4.66c.24-.41-3.9-.55-5.46-.16s-3.17-.35-3.29-.76-15.24-2.39-21.07-1.73-11.27.7-12.1.08l-1.09.11-7.36.76c-8-1-17.28-1.78-18.35-2.19s-3.37.44-3.93.89.25 4.37.69 5.64-1.61 2.53-4.57 2.81l-2.31-.3c-3-.38-5.82-1.39-8.75-2-4.87-1-9.72-1.57-14.28 1.28l-.29.18a3.15 3.15 0 01-1.34-2.5c.05-.57 2.28-1.12 2.94-1.14s1.71-1.74 1.88-2.31 2.62-.38 5.44.43h4.24a35.1 35.1 0 018.42-2c1.28 0 .35-.92-2.06-2.06l-2.21-.08-1.79-.06c-1.92.47-6.76-.84-8-.64s-5.43.76-6.55 1.15-5.5-1.87-6.81-2.87-.94-3.92 0-4.32-5.26-2.94-7.83-3.15a67.29 67.29 0 01-7.08-1 .94.94 0 01-.72-1.11c.14-.21 11 .28 15.28.55s8.78-1 9.18-1.61 1-.07 1.19.4 3.74.71 5.25.66a6.91 6.91 0 004.06-2c.44-.66 20.86-1.53 28.22-2.5s16.84-1.66 18.13-1.7a31 31 0 006.85-1.67l2.38 1.06.88.4a22.92 22.92 0 016.67.67l2.26.29c2.23.29 4.41 1 6.64 1.28 1.57.18 3.81.5 4.66-.34l2.31-2.29a103.38 103.38 0 0013.75.33l4.29-.21h.44a3.27 3.27 0 00.65-2.26c-.08-.43-5.81-1.4-7.9-1.66s-13.52.89-17.24 1.22-8 .65-9.51.72l-.16-.43c-1.12-3-2.88 2.32-4.34-.45-.43-.81-3.43-.29-5.26-.33h-1.59c-1.69 0-7-2.29-8.51-2a87.51 87.51 0 01-9.42.82l-2.48-1.42c-2.86-1.63-5.21.1-7.37-.35-2.6-.54-3.75 2.19-6.19 1.43l-.56-.17c-1.53 2.67-4.66 4.67-5.55 4.58s.74-1.41 1.32-1.71-1-1.54-1.76-1.88-8.66 1.94-11.43 1.09-9.28 1.34-10.78 2.36-8.76-.63-11-.34-5.8-2-6.78-1.53a7.64 7.64 0 00-2.49 3.06c-.2.64-2.15.36-2.78.07s-6.83 2.83-9 1.68-4-5.42-4-6.51 6.25-1.7 8.62-1.5 3.77-1.29 3.65-1.66-10.14-1.44-13.82-1.72a28.27 28.27 0 01-7.87-1.61c-.33-.3 2.76-5 4.83-5.53s9.48-1.37 11.78-1 6.85-.84 7.86-1.43 4.07-.15 4.93.21 1.48-1.47 1.46-2.05-4.55-.89-6.19-.83-3.83-1.87-4.46-2.3a5.83 5.83 0 01-1.88-2.79c-.32-1.13 2.22-.61 2.82-.3s2.09-.52 2.51-1-.14-4.37-.94-5.64a5.22 5.22 0 00-4-2.29l-1.57.16h-.38a16.57 16.57 0 00-.9 2.34c-.09.34-3.83.75-5.15.8s-4-2.53-4.58-3.38-.14-3.76.07-4.31 3.11-.53 4.13-.36 3.3-2.36 3.75-3.21 5.56-.29 7.3-.57-2.11-2.27-3.82-2.83-3.76-.33-4 0-3.09-4.09-4.81-5.13 7.07.06 11 .36 8 1.67 8.46 2.26-1.37 2.38-2.27 2.91 3.75.76 4.91.72 10.2-3.84 12.74-5 5.79-1.17 6.1-.93 1.44-.34 1.79-.65 2.14 1.78 2.66 2.59 2.71 1.74 3.38 1.85 3.45.93 6.15 1.79l1-.89 3.15-2.8a124.12 124.12 0 0014.32.61c2.3 0 3.07 1.11 1.71 2.51l-.58.81-.58.8c-.62 1.23.45 1.62 2.38.86l1.37-.12c2.94-.28 5.91-.24 8.86-.42h.34c.45-.59-1.76-1.55-2.71-1.73s-1.23-2-1.07-2.46 2.08 0 2.67.29 5.11-2.05 7-1.74 2.41 3.15 2.17 3.78 1.61.86 4.12.49l1.65-1.71.21-.21c.55 0 1.1 2.78 1.13 3.82a2 2 0 01-1.56 2.11l-.73.18-.71.17c-.76.3-1.26.82-1.21.93s11.54-.23 15.88-.39 0-2-2.92-2.57-5.35-1.72-5.34-2 5.29-2.78 7.28-1.92 2.76-.43 2.41-1.25 3.62-.2 4.86.18 7.56-1.67 9.64-2 7 1.78 8.21 1 7.39.84 9.62.29.1-2.57-.91-3a17.3 17.3 0 00-4.69-.8l-1.43.12c-2.14.19-4.3.19-6.45.27-7.51.27-15 .56-22.55.8h-.48a3 3 0 01-.94-1.77c0-.23 8.63-4 11.86-3s14.45-.31 18.07-.5 6.77-.18 7 0 2.29-.35 2.91-.59 14-1 18.86-1.13 21.8-.16 26.71 0 28.88-.72 36.44-.34 24.38.86 28.4 1.13 7.91.8 8.65 1.19l.71.09 5.42.7c5.66-1.15 12.94-1.44 13.86-1.23s14.23.81 19 .91 9.43.2 9.72.19 3 .72 6 1.62l2.75-.46c3.27-.54 6 1 9.07 1.4l4.62.54c5.18.09 16.07 1.76 18.87 1.71s12.33.44 21.17 1.09c0 0 4.42.33 14.73-.65l5.32-.5c6-.08 12.5 2.06 13.15 3s8.11 2.87 11 3.31 13.87 1.31 17.16 1.51 13.22.7 22.07 1.11l17.92-1.53c8.86.31 16.83.53 17.72.48h3.11c2.43.65 13.44 3 17.34 2.53s-1.35-2-3.83-2.42-6.95-1.36-7.89-1.58-7.68-.57-9.94-.79-10.23-1.41-12.68-1.52-11.15-.8-13.7-.91-17.59-.54-22.5-.78-9.4-.65-9.65-1a3.45 3.45 0 01-.08-1.89c.12-.4 2.51-1.06 5.33-1.45l2.22.6 2.23.61c2.36.24 6.14.55 8.38.7l2-.26 2.29-.29c2.82 0 3.65-1.84 3.34-2.22s.27-2.63.57-3.33-6.66-1.94-15.49-2.74l-17.55 2.4c-8.8-1.12-16.86-4.1-17.13-4.74s-3 1-3.88 1.7-1.94-.26-2.09-.81-3.78-2.81-8.06-5l-4.18 4.22s-.7-.93-1.14-1c-8.06-1.63-8.33-1.65-8.33-1.65-8.86-.48-21.65-1.86-28.44-3.07l-6.4.91-2.5.35c-3-1.29 1.44-3.12 4-3s12 1.16 14.67 1a74.41 74.41 0 0111 .45l3 .29 3 .29c3.31.48 13.56 1.06 16.38 1.4s8.9.84 13.48 1.12l4.3 1.88c3.77 1.64 9-.05 13.53-.08h1.53c1.73.5 3.09-.58 3.07-1s1.15-.85 2.59-.9 4.73 1.45 4.48 1.99zM985 268.34l.78.08h.23c.74-1-3.27.14-3.56.15s-2.25-2.19-3-2.78-2.21.79-2.48 1.39 2.73 1.39 4 1.51 1.44.53 1.64.76.61-.22.7-.47a3.73 3.73 0 01.63-1c.3-.24.23.07 1.06.36zM1336.13 341l.78.08h.23c.79-1.05-3.26.52-3.49.73a.6.6 0 00-.07.72c.09.09.69-.49.89-.74a.73.73 0 00.14-.66c-.06-.05.13-.3.43-.55s.26.11 1.09.42zm-63.73-.23c1.11.31.85-3.05-.82-3s5.46.51 6.32.48 1.63-1.37 1.65-1.85-2.19-.8-3-.77-1.63 1.38-1.65 1.86-1.47 1-3.21 1.13-.4 1.81.71 2.13zm-157.19.66c-.15.51-4.85-.38-6.71-.12a1.61 1.61 0 00-1.36 2.46c.43.42 5.57.59 7.43.53s3-.52 2.82-.67 1.64-1.08 2.44-1.41 3.19-1.51 4.34-1.55 1.91-.63 1.69-1.32h-.06l-2 .35c-2.3.61-4.68.89-5.3.63s-3.13.56-3.29 1.08zm139.14-.64l2.79.49c2.75-.92 7.13-2.53 8.16-2.93s-2.66-3-3.74-3.5-2.86 1.08-3.19 1.81-3.39-.42-4.42-1.06-4.19 1.34-5 2.25-2.2 2.12-2.44 2.34a.58.58 0 00-.07.71c.09.09.69-.49.89-.74a.69.69 0 00.14-.65c-.06-.06 2 .34 4.64.88zm-306-63.61a1.55 1.55 0 00-1.81.43l-.69.38-.62.34c-.93.1-1.09.86-.94 1a54.78 54.78 0 006.73.11c1.79-.07 3.81 1.32 4.07 2s7.31-2.54 10.18-3.92a29.32 29.32 0 018.47-2.42c1.34-.05 1.23-2.23.94-2.74s-2.67 1.06-3.37 1.7-4.39.94-8.21.66-14.2 2.73-14.75 2.44zm517.1 63.44c.35.28 1.87-.54 2.35-1s-4.38-.41-6.23.46-9.18-1.76-11.6-1.73a120.86 120.86 0 01-13.39-1.21l-4.1.72c-4 .71-7.71-.41-11.57.06-4.24.52-8.55.37-12.83.56-2.59.12-4.65-1.72-7.43-1.55l-1.94.11c-2.16.17-12.82 3.6-16.76 3.51s-1.59.48 5.22 1.28l5.31.39c2.65.2 5.4-.51 8-.14l2.52.37a28.63 28.63 0 019.62-1l2.59-.12 1.42-.06c1.69-.68 3.52-.88 3.86-.62s18.85-.12 25.76-.38 13.4-.38 14.4-.27 4.45.32 4.8.6zm-336-33.08c3.62.21 7.58-.76 8-1.22s-1.26-2.12-2-2.61-2 1-2.17 1.62-2.1 1.13-2.84 1.16-2.07-1.32-2.42-2-2.22-.24-4.16 1l-1.83.7-1.64.63c-1.94.18-11.23-1.06-14.05-.36s-6.78 1.48-7.51 1.15-9 1.31-11.87 1.13-12.45.27-15 1-1.69 3.3-.66 3.95 4.86-.07 6-.58a9.69 9.69 0 014.66-.45l.9.72 2.32 1.84a24.69 24.69 0 017.51-3.18l1.85-.64a5.21 5.21 0 013.6.74l2.27 1.21c1.94-1.53 3.92-1 4.06-.36s-3.25 1.34-4.55 1.39-.7 1.75-.32 2.13 9.4-2.14 12.89-2 6.47-.65 6.51-1.06-4.8-.76-6.17-.33-2.6-2.31-2-3a2.68 2.68 0 013-.28c1.06.57 12.06-2.53 15.67-2.32zm-18-34.34c.89.18 3.8.87 4.71 1.13s4.76-1.74 6.1-2.69 4.19-1.25 6.35-.67l2 .24a50.42 50.42 0 007.76.43l2.06-.05 10.12-1.9 3.22 2c1.93 1.16 5.72 1 7.72-.16 2.53-1.47 5-1.21 7.43-1.73l1.15-.24a1.52 1.52 0 00-.76-2.75c-.75-.06-8.61.14-17.47.44l-18.42.74c-8.86.34-19 .12-22.53-.49l-2.57 2.93-.36.42c-1.07-.18-8.46-2.77-10.66-1.28s.19 2.55 1.79 2.5 4.54 1.78 5.11 2.45a1.38 1.38 0 002.09.08c.64-.68 4.35-1.6 5.25-1.42zm418 107.33c3.37.27 6.28-.16 6.34-.4s-1.46-1-2.24-1.33-.15-.85 1.4-1.25l1-.13 1-.14a1.32 1.32 0 011.17 2c-.31.41 12.68 2.05 17.73 1.83s10.22-2.35 10.7-3.26a3 3 0 012.42-1.58l.48.42 2.91 2.62c4.09.53 4.66-4.91 2.41-4.86s-11.1 1.41-13.78 1.7-8.2 1.2-12.25 2l-3.49-2.23-.41-.26c-.56-.08-15.08.33-20.56.54s-9.49.85-8.9 1.44 10.76 2.59 14.13 2.87zm-44.71 19.8c.45-.09 14.88-3.52 20.28-2.1s11.86-.88 13.21-2.13-2.54-1.53-4.21-1.54-4.15-.13-5 .26-4 1.52-4.9 1.19a27.57 27.57 0 00-2.94-1.1c-.44 0-8-.77-10.67-.23s-12.28.16-15.55.56-3.71 1.44-1 2.29 10.39 2.86 10.84 2.78zm-104-124.1c-1.07.64-4 1-6.56.75h-2.33c-5.43-.09-10.77.64-16.3-.83l-4.88-1.29c-5.82.13-14.76-.42-16.59.05s7 3.13 10.9 3.5 18.4 1.72 22.74 1.59 18.83.5 23.08.05 5.6-.9 3-1-11.99-3.48-13.05-2.84zM-554.12 394.56c.27.6 3-1.05 3-2.32s-6.52-3-9.38-3.36-6 .35-6.83 1.27 4.5 3.87 6.24 4.51 3.42.61 3.75-.06 2.95-.6 3.22-.04zM1075.05 273l.48.2.45.19c1 .26-.18 1.36-.72 1.61s-1 1.59-.94 2.16 1.34.08 1.7-.19a6.26 6.26 0 012.9-.38h2.49c1.6.87 4.61-.45 6.68-2.92l1.75-2.13a26.26 26.26 0 00-5.43-.12c-2.78.2-10.41 1.01-9.36 1.58zm-1737.88 45c1.45-.6-6-1.67-9.25-1.18s-2.73 1.1-1.54 1.17a3.62 3.62 0 012.31.87c0 .2-3.09 1.74-4.47 2.34s-.56 1.7.1 1.9a1 1 0 01.69 1.2c-.14.22 3.89-.93 5.5-1.45s2.72-1.19 2.44-1.51 2.77-2.67 4.22-3.26zm1589.45-45.33c-.6-.38-3 1-3.82 1.77s-6 1.56-8 1.63-2.26 2.53-1.83 3.32 2.18-.09 2.72-.67 2.12-.41 2.6-.13 3.73-1.12 4.95-1.81 8.3-2.28 11-3.09 3.13-1.66 1-1.91-8.02 1.27-8.62.89zm730.89 106.45a40.9 40.9 0 007.68-.82c.1-.15-1.43-.47-2-.55s-.6-.81-.41-1.07-9.51-.1-13.27 0-6.82.63-6.8 1.11 10.78 1.48 14.8 1.33zm-600.78-104.59c-.62.74 1.56 2.73 2.39 3.15s6.46-.41 8.51-.9.92-2.67-.26-3.41a8.56 8.56 0 00-4-1.28c-1.07.04-6.01 1.7-6.64 2.44zM75.6 300.08c-.35.79 2.22 1.34 3.3 1.3s2.59-1.84 2.88-2.64 3.14.84 3.87 1.49 2.24-.87 2.64-1.73a3 3 0 00-.63-2.73 11.82 11.82 0 00-4.59-1 18.12 18.12 0 00-3.21 1.09 19.17 19.17 0 00-4.26 4.22zm-756.16 37.52c.67 0 2.88-2.87 3.59-4.09s-5.26-2.4-7.72-2.17-3.51 1.34-2.31 2.48 5.77 3.8 6.44 3.78zM1204 299.07c0-1.05-2.94-.67-6.59.84l-2.28-.81-3.24-1.15c-2.39.88-3.75 3.89-3.61 4.44s2.49-.15 3.29-.56a4 4 0 012.91.2c.47.31 1.54-.11 1.83-.4s1.5-.26 2.68.07 5.01-1.59 5.01-2.63zm295.33 41l1.48-.24c2.36 0 .89-1.8.07-2.24s-7.73 1-10.18.5a16.59 16.59 0 00-7.69 1c-.93.53 5 2.64 7.42 2.52a32.92 32.92 0 007.45-1.27zm-143.49-2c-1.68-.31-3.55.84-3.75 1.41s-1.26.36-1.62.09-2 .74-2.71 1.38 5.81.89 8.07.81 4.4-.47 4.77-.87-3.06-2.51-4.74-2.83zm-116.95-35.23c2.07.17 3.82-2.39 3.83-3.24s-6.29-1.32-8.53-1.24a15 15 0 00-4.4.67c-.09.14.26.41.78.59s6.27 3.04 8.34 3.21zm-1789.67 77.04c-5.81-4.89-11.32-2.42-16.69-1.78zM-642 315.34c-2 .52-.89 1.73.12 2a7 7 0 003.61-.13c.99-.34-1.73-2.39-3.73-1.87zm136-9.24v-.1c-.13-.22-.38-.53-.57-.52l-6.07.19c-6.68.25-12.15 1.09-12.15 1.34s2.81.34 6.25.21 12.54-.77 12.54-1.12zm2088.81 73.74c0 .16 6.1.53 8.45.62s4.24-.84 4.21-1.48-2-.94-4.29-.68a73.89 73.89 0 00-8.34 1.54zm45.87.54h.19l3.93-.08c4.32-.17 7.86-.95 7.86-1.2s-1.84-.37-4.1-.29-8.13.88-7.85 1.57zm-141.19-1.69c0-.47-2.93-.75-4-.71a5.34 5.34 0 00-2.36.6 10 10 0 002.68 1.35 12.78 12.78 0 002.05.65c.21-.01 1.68-1.42 1.66-1.89zm-2128.68 48.89c1 .52 3-.77 3.4-1.47s-.35-1.21-1.76-1.16-2.67 2.11-1.64 2.63zM1473 339.52c-1.3.69 1.94 1.11 3.13 1.07s2-.55 1.93-1.12-3.74-.65-5.06.05zm-266.79-2.76a4.51 4.51 0 003.48-1c.51-.54-.41-.94-2-.88s-2.6 1.58-1.46 1.88zm-1863.56 91.37c1.08.48 2.54-.65 2.77-1.26s-.71-1.07-2.07-1-1.79 1.77-.7 2.26zm-.17-91.65c1.09 0-.78-2-1.61-2.55s-1.61-.49-1.73.19 2.25 2.4 3.34 2.36zm2350 40.94a25.9 25.9 0 004.31.11 3.45 3.45 0 002.13-.61 4.45 4.45 0 00-2.16-.19 20.36 20.36 0 00-4.25.69zm-383-86.66c-1.17.56 1.45.89 2.33.86s1.59-.39 1.58-.79-2.69-.64-3.85-.07zm-1963.89 61.08a18.1 18.1 0 00-3.89-.45c-1.07 0-2 .61-2 .87s.86.43 1.94.39a14.81 14.81 0 003.95-.81zm2024.77-10.42c.56.09 1.26-1.31 1.35-1.83s-1.6-.88-2.19-.86-1.07.36-1 .75a4.16 4.16 0 001.84 1.94zm-33.82-43a12 12 0 002.84.57 1.41 1.41 0 001.45-.81c0-.27-.63-.46-1.41-.43a9.34 9.34 0 00-2.88.65zm-8.28.41a14.5 14.5 0 003.23.15c.89 0 1.6-.45 1.59-.59s-.73-.25-1.62-.21a11.57 11.57 0 00-3.2.63zm-203.9 15.93a2.21 2.21 0 001.21-.51 7.44 7.44 0 00-2.12-.87c-.57-.16-1-.12-1 .09a4 4 0 001.91 1.27zm7.38-.81a12.11 12.11 0 00-2.81-.58 1.45 1.45 0 00-1.47.81c0 .26.61.45 1.39.42a9.85 9.85 0 002.89-.67zm-39.74 1.47a12.23 12.23 0 002.81.58 1.48 1.48 0 001.48-.81c0-.26-.61-.45-1.4-.42a9.94 9.94 0 00-2.89.65zm-182.63-38.51a11.71 11.71 0 00-2.81-.58 1.49 1.49 0 00-1.48.8c0 .27.61.46 1.4.43a9.94 9.94 0 002.89-.65zm410.31 21.78c-.61.44.39 1 1 1.1a.87.87 0 001-.93c-.02-.6-1.39-.6-2-.17zm297.62 78.09c-.16 3.92-.16 3.92 2.25 3.33zm-2144.08-71.56a6.89 6.89 0 00-2.16-.19c-.59 0-1.06.43-1 .58s.49.25 1.08.23a5.72 5.72 0 002.08-.62zm2080 62.67a5.35 5.35 0 00-1.73-.61c-.49-.1-.94.5-1 .76s.35.45.84.43a4.84 4.84 0 001.88-.58zm-80.64-.29a5.56 5.56 0 00-1.79-.59c-.49-.09-.92.51-.93.76s.39.45.88.43a4.57 4.57 0 001.83-.6zm-2098.87 44.65a5.57 5.57 0 00-1.78-.59c-.5-.09-.93.51-.93.76s.38.45.87.43a4.57 4.57 0 001.84-.6zm1990.12-72.95a5.42 5.42 0 001.74.61c.48.1.94-.5 1-.76s-.36-.45-.85-.43a4.84 4.84 0 00-1.89.58zm-74.71-2.06a5 5 0 00-1.73-.61c-.48-.1-.94.5-1 .75s.36.45.85.44a4.78 4.78 0 001.88-.58zm74 81.16c0-.15-1.28-.5-1.78-.59s-.92.5-.93.76.39.44.88.43a4.62 4.62 0 001.82-.6zm261.52-38.61a5.33 5.33 0 00-1.74-.61c-.49-.1-.94.5-1 .76s.37.45.86.43a4.61 4.61 0 001.87-.58zm-115.75-.63a5.25 5.25 0 001.73.61c.48.09.94-.5 1-.76s-.36-.45-.85-.43a4.78 4.78 0 00-1.89.58zm-2190.46-27.67a6.5 6.5 0 002.15.19 1.23 1.23 0 001.06-.57c0-.15-.49-.25-1.09-.23a5.63 5.63 0 00-2.12.61zm18.52-1.4a5 5 0 00-.61 1.73c-.1.48.5.94.75 1s.45-.36.44-.85a4.72 4.72 0 00-.53-1.88zm-4.74-13.75c0-.15-1.29-.5-1.78-.59s-.93.5-.94.75.39.45.88.43a4.76 4.76 0 001.84-.59zm1648.45-63.66a5.25 5.25 0 001.73.61c.48.09.94-.5 1-.76s-.36-.45-.85-.43a4.78 4.78 0 00-1.88.58zm9.27-.32c0-.15-1.28-.5-1.78-.59s-.92.5-.93.76.39.44.88.43a4.46 4.46 0 001.83-.6zm233.58-8.54a5 5 0 00-1.73-.61c-.48-.1-.94.5-1 .75s.36.45.85.44a4.78 4.78 0 001.88-.58zm-1867.27 57.09c0 .15 1.24.52 1.73.61s.94-.49 1-.75-.36-.45-.85-.43a4.57 4.57 0 00-1.88.57zm1825.29-20a6.86 6.86 0 002.16.19c.59 0 1.06-.43 1-.57s-.49-.25-1.08-.23a5.69 5.69 0 00-2.08.7zm477.33 82.49c0 .1.78.15 1.08.14a.59.59 0 00.52-.38c0-.1-.25-.17-.54-.16s-1.07.35-1.06.45zM-674.68 339c.1 0 .15-.79.14-1.08a.59.59 0 00-.38-.53c-.1 0-.17.25-.16.55a2.27 2.27 0 00.4 1.06zm504.28-18.48c.1 0 .15-.79.14-1.08a.59.59 0 00-.38-.53c-.1 0-.17.25-.16.55a2.27 2.27 0 00.4 1.07zm1242.11-47.14c.1 0 .15-.78.14-1.08a.59.59 0 00-.38-.52c-.09 0-.17.25-.16.54s.3 1.08.4 1.07zM-546.7 358.52c-.1 0-.15.78-.14 1.08a.59.59 0 00.38.52c.1 0 .17-.25.16-.54s-.3-1.07-.4-1.06zm1922-73.66c-.1 0-.15.78-.14 1.08a.59.59 0 00.38.52c.1 0 .17-.25.16-.54s-.35-1.07-.45-1.06zm-57.84 50.51c-.1 0-.15.79-.14 1.08a.59.59 0 00.38.53c.1 0 .17-.25.16-.54a2.27 2.27 0 00-.45-1.07zm-72.38 1c.1 0 .15-.78.14-1.08a.59.59 0 00-.38-.52c-.1 0-.17.25-.16.54s.25 1.11.32 1.1zm226.91 28.79c.1 0 .15-.78.14-1.08a.6.6 0 00-.37-.52c-.1 0-.17.25-.16.54a2.3 2.3 0 00.34 1.1zm-2115.74 74.35c-.1 0-.15.79-.14 1.08s.28.53.38.52.17-.24.15-.54a2.28 2.28 0 00-.39-1.06zm2074-88.19c0-.1-.79-.15-1.08-.14a.59.59 0 00-.53.38c0 .09.25.17.55.15a2.28 2.28 0 001.02-.39zm6.44-.24c0-.1-.78-.15-1.08-.14s-.53.28-.52.38.24.17.54.16a2.23 2.23 0 001.02-.4zm164.89 28.73c.1 0 .15-.78.14-1.08a.59.59 0 00-.38-.52c-.1 0-.17.25-.16.54s.26 1.07.36 1.06zm-2178-2.46c.1 0 .15-.78.14-1.08a.59.59 0 00-.38-.52c-.1 0-.17.25-.16.54s.24 1.07.34 1.06zm714.82-82.66c.1 0 .15-.78.14-1.08s-.28-.53-.38-.52-.17.24-.16.54a2.23 2.23 0 00.4 1.06zm-749.23 25.84c.1 0 .15-.78.14-1.08a.59.59 0 00-.38-.52c-.09 0-.17.25-.16.54s.3 1.07.4 1.06zm774.71-30c-.1 0-.15.79-.14 1.08s.28.53.38.52.17-.24.16-.54a2.27 2.27 0 00-.4-1.06zm-850.55 29.56c.1 0 .15-.79.14-1.08a.59.59 0 00-.38-.53c-.1 0-.17.25-.16.55a2.27 2.27 0 00.4 1.06zM1177 264c0 .1.78.15 1.08.14a.59.59 0 00.52-.38c0-.1-.25-.17-.54-.16s-1.12.28-1.06.4zm4.83-.18c0 .1.79.15 1.08.14a.57.57 0 00.52-.37c0-.1-.24-.17-.54-.16a2.28 2.28 0 00-1.11.37zm17 .1c.1 0 .15-.79.14-1.08a.59.59 0 00-.38-.53c-.09 0-.17.25-.15.55a2.28 2.28 0 00.37 1.04zM-688 328.2c.09 0 .15-.78.13-1.08s-.27-.53-.37-.52-.17.25-.16.54.32 1.07.4 1.06z" transform="translate(717.22 -232.5)"/><path class="cls-1" d="M-586.63 279.35c-2.25-1.2-4.08-1.66-4.06-1s3 3.34 6.45 4.81 16 5.73 19.8 6.26 14.37 2.47 14.54 2.3a21 21 0 016.14-.85c2.89 0 14.93 1.14 20.76 1l4.79 1.56c5.37 1.74 10.45.39 15.64.53l5.35.15a136.23 136.23 0 0116-.23c2.91.27 11.71-2 13.14-1.23s5.64-1.35 6.69-1 6.86.43 10.86.16 15.23-.68 16.2-1.57 6.05.48 8.1.22l1.81-.86a4.35 4.35 0 013.17-.13l6.43 2.78c7.2-1.12 16.25-1.51 20.11-.85s15.88-.37 18-.52 8 2.76 9.29 2.34 4.61-1.82 4.59-2.22a6.68 6.68 0 00-.23-1.6c-.1-.12-5.09-.66-10.85-1.19s-25.26-.25-30.45-.78-20.92-.11-23.33-.65l-2.24-.22c-1.94-.18-3.54 1.6-6 .37-1.9-.95-4.73 0-7.14.06l-7.25.26c-23.6.87-54.7 2-54.7 2-8.86.32-17.51.85-19.21 1.17s-8.31-2.06-11.31-2.59l-3 .89-3 .89c-3.61-.29-10.18-.87-14.59-1.29s-16.59-4.24-17.86-4.33-10.38-3.45-12.64-4.64zM1440 322.82l-15.14.55c-.8 0-1.85.4-2.37 0-3.39-2.41-7.13-.88-10.7-1.19s-7.11-.8-10.66-1.19c-4.17-.46-8.32.22-12.56-.11l-3.69-.28c-4.12-.18-7.37-2.08-7.35-2.47s2.18-1.33 2.91-1.55-1.61-.69-5.22-1.05l-3.18.05-3.1.05c-3.7-.79-6 .77-5.83 1.17s2.73.62 5.76.5h2.93c.21.41-.59 2-.93 2.47s-10.36-1.92-14.13-1.45-6.68-.63-6.61-1.21 5.45-.42 7.48-.18 2.49-1 1-2.74l-2.34.37c-1.31.21-3.1.68-3.92.05a5.84 5.84 0 00-4.32-1.37l-1 .06c-1.08-.3.45-1.62 1.3-1.66s19.17-1.26 25.85-.71 15.07.64 18.67.18l3.44 1.77 1.73.89a27 27 0 018.81-1.36c.93.13 5.84.46 7.4.54s7.47 1.13 8.89.4a7.7 7.7 0 014.74-.22c.59.29 2.55-.49 3.13-.89s6.3 2.43 8.6 1.92 10.29.86 12.52.53 10.27-.57 12.73-.73 2.23 1.49-.54 3.67l-2.45-.6-1.45-.35c-1.54-.55-6.23-1.78-7.46-1.27a24.08 24.08 0 01-7.47.77l-2.66.12h-.29c-.28.49.61 2 1 2.4s4.58.59 5.9.54a21.73 21.73 0 015.59 1.41c.74.35 1.29.77 1.24.94a150.79 150.79 0 01-16.25 1.23zm-13.29-7.35c-2.17.08-.19 1.16 1.21 1.54s6.36-.15 8 0 2.29 0 1.46-.42-8.49-1.2-10.67-1.12zm-25.84.52c.55-.59-2.86-1.19-4.44-1.24s-1.91.43-.72 1.06 4.62.77 5.16.19zm-14.09-.1a5.39 5.39 0 00-1.78-.59c-.5-.09-.93.51-.93.76s.39.45.88.43a4.46 4.46 0 001.83-.6zM380.28 265c-2.51.22-3.46 1-2.11 1.85s4.72 2.16 5.35 1.78 9.56-1 18.42-1.32c0 0 2.64-.09 12-.54 3.13-.15 5.69 2 9.06 1.49 2.92-.46 6.2-1.39 9.24.57l.54.35c1.39-.83 6.83-1.06 12.1-.51l4.74.93 1 .2a19.17 19.17 0 004.11.26c1.18-.08 5.32-1.25 6.59-2.76l2.18 2.35c.94 1 4.08 0 6.22-.05l1.8-.06c2-.08 3.69-.59 3.67-1.14s-1.65-2.13-3.57-2-10.83.29-15.64.45-20.41-1.28-24.44-1.32-16.95-.55-19.8-.69l-2.59-.17-2.57-.18a45.54 45.54 0 00-7.92 0c-1.53.24-6.11-.36-7.25-.36s-6-1.3-8.18-1.77l-2 1.75zm-502.03 39.8c-8-.26-14.56-1.1-14.66-1.86a14.36 14.36 0 00-.63-2.84c-.16-.11-.77.31-1 1.16a2.56 2.56 0 01-3 1.29c-1.36-.34-4-.38-4.69.19s-2.14 2.68-1.62 3.26 4.51 2.26 7.53 2.2 12.27-.86 13.76-1.22 8-1.62 11.07-2.18l2.84-.1c2.89-.11 5.8.44 8.7.39h1.15a6.15 6.15 0 013.56-.68c1.21.14 4.74-.19 4.12-1.16s-7.69-4-14.7-5.24l-6.58 3.6zm1890.39 79.89c-.86-.64-1.57-.8-1.58-.34s4.6 3 10.29 4.29l5.48-.94 5.32-.91c6.19-1 11.09-2.27 10.88-2.88s.8-3 2.81-3.62 8.14-2.15 8.2-2.61-3-2.58-7-2.73-14.89 2.37-15.48 2.12a1.43 1.43 0 00-1.73 1.75l3.26.58.49.08c.9.22.87 1.52-.05 2.89l-.91.17c-5.07.92-10.2 1.58-15.31 2.25a13 13 0 01-4 0zm-429.33-71.15c.27-.74-1.22-1.28-3.32-1.2s-8.8-1-10.2-.6-5.29 2.06-4.06 2.25a18 18 0 013.85.95c0 .18-3.34.77-7.39.92s-12.58 2-9.3 3.76l3.25-.12 2.76-.09c3.09.6 6.89 1.29 8.45 1.51s7.15-1.11 9.88-1.55 10.88.39 11.42-.1 1.56-2.61-.12-2.55-5.53-2.43-5.22-3.18zm208.2 5.46c-2.16.44-3 1.67-1.84 2.73s6.49 3.9 9.16 3.8 10.94-4.2 13.51-4.59 8.41 3.41 8.94 2.81 1.41-2.31 1.08-2.8h-.24l-5.24.9c-6.54-1.6-10.36-3.45-8.49-4.1s5.44-2.55 4.25-2.93-5-1.28-5.35-1a11.79 11.79 0 01-3.88 1.25c-1.54.19-5.37-.39-6.92-.35s-5.64.43-5.1.57 1.86.73 1.72 1 1.11.85 3.1.78 7.47.24 6.43.92-8.98.6-11.13 1.01zm-335.94 117.54c-3.3 1.19-2.63 4.07 1.48 6.4l3.61-3.83c.13-.14.52 0 .79-.05l6.47-.77c7.11-.86 14.52-1.51 16.47-1.43s10.11-1.82 13.74-1.73l3.09-2.26 1.16-.85c2-.29 1.26-.9-1.57-1.35s-11.74 2.47-13.76 2.61l-1.88.07c-2.42.09-4.85.06-7.25.3l-2 .21a36.21 36.21 0 00-6.14.82 54.62 54.62 0 01-9.21.9l-2.35.45zM373.36 264.8c1.93-.48-.45-1.3-5.28-1.82l-4.35.06-4.23.06a66 66 0 01-13 .72c-2.48-.28-9 2.51-9.42 2.23a1.4 1.4 0 00-1.92 1.57h.2l2.16.15c.7 1.74 3.51 2.4 6.26 1.47s10.15-.64 10.65-1.18 3.43-1 5.3.27 11.7-3.05 13.63-3.53zM730 273.51a1.8 1.8 0 00-2.11.44c-.56.6-5.19 1.57-8.9.64s-13.92.67-12.79 1.86l1 .56 1 .61c1.32.36 2.71.41 3.09.11s2.26-.87 2.7-.15 2.45 2.4 3.23 1.73 3.47-2.15 3.95-1.53 2.14 2 2.55 1.56 2.57-.62 3.91.42 6.14-1.29 7.52-.86 6.09 1.33 7.15.94 4-1.88 3.91-2.35l-.27-.14-4.38-2.21c-5.27-.33-10.94-1.27-11.56-1.63zm-377.94-19.24c-3.64 1.79-2.93 3.69 1.58 4.23s18-.61 19.53-.43 6.38 0 6.84-.82-.76-3.95-4.3-4-14.73 1.58-17.6 1.39l-2.64-.16zm314.26 15.84c-.57-.6-2.49-1-4.26-.85s-8.19 2.59-10.61 3.93-6.72 2.95-3 3.94 13.44-1 12.85-1.56a12.59 12.59 0 01-2-2.36 3.59 3.59 0 012.35.41l1 .2.95.18c1.54-.15 2.53.4 2.2 1.22s-.39 3.06.62 3.11 4.34-.1 4.1-.53a2.83 2.83 0 01.46-2.77c.78-.61 2.65-2.87 1.4-2.82a17 17 0 01-6.06-2.1zM1468.28 293a4.19 4.19 0 00-3.25 1.62c-.45.84-4.83 3.19-8.51 3s-14 .4-12.84 2l.81.36 1.3.59a14.08 14.08 0 003.39.27 53.71 53.71 0 0111.36 1.38l5.6-2.51c1.88-.85 5 1.25 7.66 1.91l1.23.31a4.66 4.66 0 003.24-.57c.44-.48 0-2.48-2.32-2.9s-7.54-1.9-6.37-2.36.02-3.1-1.3-3.1zM27.54 296.13c-.42-.24-2.73.18-5.14.93s-8.77 3.08-8.76 3.47 5.77 1.66 12.74 1.22l5.71-1.94 5.9-2c6.75-1.59 12.26-3.07 12.23-3.29s-.52-1.43-.93-1-1.56 1-1.88.74-3.39-.16-6.65.38-12.76 1.74-13.22 1.49zm705.79-6.86c.82.69 6.92 1.05 13.55.8s24-1.2 24.13-1.6a2.26 2.26 0 00-1.43-2c-1-.28-5.19.49-6.91 0l-1.6.06-1.94.08c-2.5.75-5.43.92-6.5.37l-1.43-.11-2.38-.17c-2.58.09-6.5.43-8.72.78l-1.94-.24-2.2-.26c-2.91-.71-3.46 1.61-2.63 2.29zM1731.4 384a1.09 1.09 0 01-1.33.15c-.31-.26-1.92-1-2.47-.61s-2.79 1.18-3.63.88-3.56-.72-3.14.17 4.37 4.19 7.87 5.49 14.11 0 14.43-.31.92-2-.13-2.05-5.11-1-6-1.81-5.17-2.22-5.6-1.91zm-2413.02 45.27c-1.39-1.2-2.77-1.53-3.06-.73s-3.57 2.89-6.75 3.27l-2.75-.53-2.06-.39c-2.56-.63-4.7-.38-4.75.56s1.57 3.58 3.76 3.42l1.78.12 2.77.17a74.48 74.48 0 009.11.78c1.93-.02 3.34-5.47 1.95-6.67zm2224.95-107.82c.86-.47-1-.77-4.16-.66s-11.25-.27-11.76-1.08a14.69 14.69 0 00-2.6-3.09v.05l-2.23 3c-2.62 3.53-1.16 6.18 3.24 5.89s16.64-3.63 17.51-4.11zm-534.8-51.78a25.17 25.17 0 005.28.36c1.68-.08 6.47-1.85 6.62-2.33s1.06-2 1.37-1.35 1.36 2.21 1.75 2.2 1.44-.64 1.12-1.34-.46-3.29.82-3.34 4.46-.61 4.44-1.17-1.77-1.75-3.83-.86l-1.8.32-2.08.36c-2.38 0-4.58-.53-4.88-1.1s-1.56-2-1.51-.73-1.06 5.42-2.54 6.79-6.72-1-7.1-.64 1.11 2.55 2.34 2.83zM1287.55 314c1.33.22 2.43.71 2.44 1.1s-.39 1.56-.92 1.78-1.82 1.07-1.75 1.4h.06l4.46.08c5.2.06 8.91-1.13 8.25-2.63l-.25-1.25-.25-1.23c0-1.66-.78-2.31-1.79-1.47s-3.89-.92-4.32-.64a4.8 4.8 0 01-3.61 0c-.99-.69-3.64 2.62-2.32 2.86zm-407.38-33.61c3.6-2.58 1.58-4.15-4.48-3.5l-5.35.7-5.07.67c-5.62 1.08-10.21 2.29-10.2 2.68a4.4 4.4 0 003.51 2.19c1.88 0 10.16-2.14 13.91-2.42l3.48-.15zm420.94 20.29c-1.17-1.28-2.6-1.81-3.18-1.19s-1.43 2.39-.55 2.5 3.34.71 3.43 1.08a3.87 3.87 0 01-.19 2h-.12l-1.84-.51c-2.07-.64-4-1.58-4.19-2.1s-2-2-2.7-.7-1.9 4.7-1.44 5.16 2 1.66 2.3 1.44a5.06 5.06 0 012.87-.73c.75.27 4.16.78 5.16.29s1.63-5.92.45-7.24zm-1577.06 11.54c3.24-.43 5.87-1.22 5.85-1.77a4.82 4.82 0 00-.85-2.33h-.4l-6.36.18c-7.2.27-13.12.92-13.16 1.44s.47 2.43 1.23 2.14 10.45.77 13.69.34zM616.12 268c2.31-.69 2-1.5-.58-1.8s-9.58-1.61-9.72-.21l.23 1.45.11.73c.84.64 7.66.52 9.96-.17zm1185.41 95.13c4.53-.56 4.67-1.5.33-2.1l-3.85.38-3.5.35c-4.28 1.18-6.09 3.1-4 4.28l1.67.23c2 .28 3.81-.55 5.81-1.48zm-670.76-128.08c.09-.19-.27-.48-.8-.64s-1.82-.7-1.71-.84-1.89-.73-4.74-1-9.29.93-7.31 3.47l2.53.08 3.89.14a36.66 36.66 0 008.14-1.21zm340.69 89.19c3.21 0 6.12-.37 6.47-.74s-1.89-1.65-5.65-2.12-13.87.22-13.18.16 2.27.1 2 .48 7.15 2.26 10.36 2.22zm21.88-53.08c-.2.6-1.61 1.49-3.13 2s-5.81 2.28-4.89 2.48 3.45 1.38 3.2 2.09-.15 3 .82 3.22l.31-.33 1.17-1.26c1.42-2.08 3.23-3.8 4-3.83a15.77 15.77 0 003.46-.46 1.2 1.2 0 00-.82-.86c-.48-.11-2.18-1.09-2.32-1.86s-1.59-1.79-1.8-1.19zM452.1 258.2c3.12-.2 5.11-.48 4.44-.62s-2.13-.65-2-.87-1.25-.73-3.49-.65-5.81 2.91-2.87 6.09l1.62-1.65zM-7.94 308.3c-7.46-4-12.64-3.95-20.94 0 7.2.89 13.47-.21 20.94 0zM-640 395.29c-4.09 0-4.54-.31-1-.64s13.43 2.28 14 1.42-8.92-.75-13-.78zm-1.07-86.89c1.94-1.53 1.5-2.71-1-2.62s-9 1-8.57 1.8 7.64 2.34 9.57.82zm1181.85-46.68a3 3 0 01-2.41.12c-.37-.32-1.55-.47-1.9.28s-1 3.23-.6 3.89 1.86 2.67 2.4 2.68a6.12 6.12 0 003.52-2.43l.72-1.24.71-1.22c1.41-2.26-1.49-2.47-2.44-2.08zm1089.83 48.54c0 .24 4.24.28 9.43.09s19.64-1.14 18.13-1.61a40.1 40.1 0 00-12-.28l-3.76.42-3.9.43c-4.3.04-7.88.69-7.9.95zM497.83 266.19c-.5-.51-3.86-.35-7.45.36s-13.23 0-13.29.47 3.07 1.86 7.13 1.71 14.12-2.03 13.61-2.54zm1091.87 50.1c1.15.15 2.07 0 2-.41s-1.71-1.56-3.6-1.49-7.4 1.1-7.41 2.11.58 4.09 1.35 4.06 3.14-.69 3.23-1.4 3.27-3.02 4.43-2.87zm-327.97-.94c1.37.2 2.74.07 3-.29s.79-1.49.46-1.8a9.35 9.35 0 00-4-1.55c-1.23.05-4.77-.36-5-1s-1.07-2.06-1.41-2.05a1.49 1.49 0 00-.75 2.14c.7 1.14 6.33 4.35 7.7 4.55zm229.67 9.85c2.55.37 2.45-.39-.23-1.69s-10.12-1.21-9.38-1.37 2.43-.25 2.08.19 4.98 2.5 7.53 2.87zm-281.97-18.73c0 1.06 1.76 1.87 3.81 1.81s2.82-6 1.41-6-5.25 3.12-5.22 4.19zm-810.91-49.01c2-.07 3.63-.51 3.62-1s-1.93-1.76-4.2-1.68-8.31.42-8.42.56 0 .62.59.74 1.86.64 1.72.85 4.68.6 6.69.53zm100.7 3.3c2.57-.52 4.67-1.26 4.65-1.65s-2.17-1.33-4.76-1.06-9.42 1.74-9.4 2.23 6.94 1 9.51.48zm377.22 1.1a1.4 1.4 0 00-1.45-2.1c-1.29 0-4.65.71-5 1.38s-.64 3 .6 3.34 5.35-1.42 5.85-2.62zm-1030.7 40.21c-.41-.89-1.87-1.2-3.25-.66s-4.73 2.08-4.72 2.4a3.6 3.6 0 003.06 1.38c1.65-.06 5.33-2.19 4.91-3.12zm1704.2 2.72a2.22 2.22 0 012.24-.17c.57.37 2.76 1.06 3.32.53s.59-1.74-1.26-1.4-6.12-2.12-6.84-1.71-2.47 2-2 2.5 3.87.71 4.54.25zM1451.7 270c0 .25 3.07.34 6.8.2s12.06-.7 10.19-.95-8.34-.43-10.21-.37-6.79.92-6.78 1.12zM249.9 282c2.63.34 4.76.12 4.74-.5s-2.2-2-4.79-1.91-9.35.47-9.36.61 6.78 1.43 9.41 1.8zm184.69-24.25c1.7-.06 3.08-.5 3.06-1s-1.47-1.77-3.18-1.7-6.24.61-6.23 1.08 4.65 1.68 6.35 1.62zm114.93 3.31c-2 1-3 2.08-2.21 2.39s4.08.66 5.34.08-1.11-3.47-3.13-2.47zm940.7 53.74c-1.71.07-3.1.49-3.09.95s1.46 1.78 3.15 1.71 6.27-.6 6.25-1-4.59-1.72-6.31-1.66zM1367.48 292c1-.53-.5-.25-3.26.62s-8.71.72-7.09.89h3.35a28.56 28.56 0 007-1.51zm-48.77 133.42l12.45-.45c-4.31-4.81-8.45-1.48-12.45.45zm-84.99-158.97c.81 1.1 2 1.26 2.7.35s1.22-3.54-.4-3.67-3.11 2.21-2.3 3.32zm194.97 11.44c2 .42 3 .32 2.18-.24s-3-2.31-2.81-2.52a1 1 0 00-1.14-1.34c-1.2.04-.23 3.68 1.77 4.1zm62.44 22.66c2.67.23 4.84.07 4.82-.35s-2.18-1.68-4.77-1.58-9.35.46-9.36.6a93.48 93.48 0 009.31 1.33zm-457.86-34.9c-1.53 1.21-2.49 2.47-2.14 2.8a5.77 5.77 0 001.67 1.11 19.07 19.07 0 002.65-2.19c1.11-1 4.26-4.21 4.19-4.44s-4.83 1.51-6.37 2.72zm200.93 49.07c-2 1-3.22 2.26-2.74 2.79s2.6 1.48 3.62.91 3.43-3.42 1.75-4.36l-.79.2zm41.71 116.45c1.87-1.2 1.72-2.12-.34-2.05s-6.89.63-6.88 1.1 5.36 2.15 7.22.95zM775.28 280.45c1.31-.68 2.26-1.72 2.12-2.31a2.54 2.54 0 00-2.88-1.23c-1.33.42-.52 4.22.76 3.54zm-15.03-1.84c-2 .07-3.62.49-3.64.93a1.84 1.84 0 002.65 1c1.51-.75 6.35 1.45 6.82.75s-3.85-2.76-5.83-2.68zm194.33-9.25c1.78-.07 3.18-.52 3.12-1s-.86-1.9-1.57-1.64-3 .8-3.36.57-2.72-1.13-3.14-.48 3.17 2.61 4.95 2.55zm460.5 13.47a18.85 18.85 0 004.2.08c2.27-.08 8.34-.73 7.84-1.23s-2.47-1.12-3.37-.39-3.91-.55-5-.19a20.94 20.94 0 00-3.67 1.73zM468 259.27c2-1.37 1.94-2.42-.22-2.34s-7 .59-7.11 1 5.27 2.7 7.33 1.34zm369.52 10.18a3.06 3.06 0 002.64-.69c.87-.66 1.9-2.79.13-3.07s-3.36 3.48-2.77 3.76zm921.36 116.78c1.83.41 3.28.25 3.22-.35s-1.57-1.94-3.27-1.87-6.14.31-6.15.42a54.35 54.35 0 006.2 1.8zm-256.78-72.14c-1.17 0-2.11.51-2.09 1.05s1 2.21 2.14 2.17h2c1.17 0 2.11-.52 2.09-1.05s-1-2.22-2.14-2.18h-1zm60.17 30.81a3.89 3.89 0 00-3.12.06c-.86.46-2.85 2.06-2.57 2.57h3.07c4.06-.2 3.49-2.21 2.62-2.63zM415 255.93c-1.59.06-1.68.61-.18 1.22s5 .91 5.1.5-3.35-1.78-4.92-1.72zM861.64 268c1.25.45 2.24-.08 2.2-1.18s-1.13-2.83-2.37-2.2l-1.06.34-.9.3c-1.15.67.88 2.29 2.13 2.74zm665.14 7.94c1.7 0 3.46-.35 3.89-.82s0-1.88-2.05-1.9-3.55 2.7-1.84 2.72zm-48.58-6.83c-1.43.05-2.59.31-2.58.58a4 4 0 003.23 1.29c1.76-.06 6.39-.64 5.9-1.12s-5.12-.8-6.55-.75zM891 258.81a10.52 10.52 0 003.41-.61c1.73-.49 6.28-1.86 6.29-2a4.94 4.94 0 00-2.41-.48c-1.33 0-4.73.06-4.58.24s0 .92-.72 1.22-2.19 1.48-1.99 1.63zM-614.9 389.05c-5.72-.26-5.75-.3-7.08 4.77zM751.06 278.47a1.06 1.06 0 00-.14 1.9c.75.55 3.44 1.56 3.55.47s-2.59-2.84-3.41-2.37zM1528.41 345c.1-.59-.8-1-2-1s-4 .58-4.11 1.1l.19.24 1.42 1.86c2.34-.32 4.41-1.64 4.5-2.2zm244.64 21.37c0 .25 1.15.41 2.51.36a40.8 40.8 0 005.13-.45c.1-.14-.07-.65-.59-.8a11.72 11.72 0 00-3.21-.46l-1 .29-.91.26c-1.1-.06-1.98.55-1.93.8zM337 278.41a9.78 9.78 0 00-3.24-.15 58.36 58.36 0 00-6.43.5 7 7 0 003.24.42 47.94 47.94 0 006.43-.77zm1116.1-2.34c-.75-.7-1.35-.77-1.33-.17s.75 2.6 1.55 2.57.53-1.7-.22-2.4zm18.68-.77c-1.48-.43-2.22.07-1.64 1.11s2.21 3.32 2.6 3.22.52-3.9-.96-4.33zM403.89 256.23c-.08.53.9.92 2.17.87s4.27-.57 3.76-1.06a4.6 4.6 0 00-2.66-1.06c-.83.02-3.16.73-3.27 1.25zm1016.33 36.39c1.56-.05 1.64-.6.18-1.21s-4.92-1.54-5-.93 3.26 2.2 4.82 2.14zm-129.8 134.47c-1 .56-.38 1 1.26.91s5.94-.61 5-1.06-5.32-.42-6.26.15zm239.08-128.8a1.47 1.47 0 00-2.44.12c-.62.9-1.23 3.26 0 3.21s3.17-2.49 2.44-3.33zm-42.96-3.29l9.11-.34c-3.06-1.78-6.14-.66-9.11.34zm-797.62-17.61c-1.92.14-2.49.78-1.26 1.43s4 1.49 4.69 1.1-1.51-2.66-3.43-2.53zM867 504.17c1.31-.55 2.36-1.38 2.34-1.84s-.73-1.81-1.55-1.78-2.1 4.18-.79 3.62zM686.84 273.16c-.18.65.33 1.16 1.14 1.13s3.84-.75 3.21-1.47-4.19-.32-4.35.34zm-411.7-.7a4 4 0 00-2-.19c-1.07 0-4.52 1.45-5.12 3l2.38-.57 1.64-.4a9.24 9.24 0 003.1-1.84zm1230.36 1.4c-.53.64 0 1.13 1.28 1.08s4.58-.62 3.55-1.14-4.33-.57-4.83.06zM344.84 280.2c.13-.19-.11-.66-.53-1.05s-2.36-1.59-3.08-1.5-2.9 1-1.45 1.5 4.93 1.24 5.06 1.05zM-678.69 430.57c0 .76.71.89 1.66.29s3.53-2.86 2.32-2.82-3.95 1.76-3.98 2.53zM773.27 288.69c.15.69.93.72 1.73.09s2.59-2.72 1.49-2.68-3.38 1.9-3.22 2.59zm-45.93-2.4l-9.24.34c4.24 1.93 6.81.61 9.24-.34zm-938.59 207.07c-.83-.57-1.61-.49-1.73.2s.28 2.46 1.17 2.43 1.4-2.05.56-2.63zm1701.79-186.68c-.2.07-.35.76-.32 1.54s.49 2.91 1 2.9 2.06-.81 1.62-1.69a10 10 0 00-2.3-2.75zm-92.73-16.98a1.82 1.82 0 00-2.08 0c-.39.43-.86 2 .4 2s2.42-1.57 1.68-2zM1769.4 374c0-1-.56-1.15-1.17-.35s-1.65 2.94-1 3 2.21-1.65 2.17-2.65zm-226.29-102.22c-.61-.26-1.29-.28-1.51 0s-.84 1.77.07 1.86a10.93 10.93 0 003.28-.08c.11-.26-1.22-1.56-1.84-1.78zm-440.29-37.9c0-1-.56-1.15-1.17-.34s-1.65 2.93-1 3 2.21-1.67 2.17-2.66zM1254 427c-.19.2 0 .76.41 1.23s2.28 1.82 2.4 1 0-2.64-.5-2.72a5.53 5.53 0 00-2.31.49zm209.85-116.77c1 0 1.15-.57.34-1.18s-2.93-1.65-3-1 1.67 2.21 2.66 2.18zM522.07 470.72c1.18 0 1.23-.5.12-1s-3.68-1.33-3.76-.88 2.45 1.92 3.64 1.88zm940.8-188.34c0-.26-.89-.43-2-.39a18.81 18.81 0 00-3.93.47c0 .19.87.7 2 .73s3.94-.55 3.93-.81zm214.04 112.02c1-.56.66-1-.65-.93a22.85 22.85 0 00-4 .41c-.1.15.14.74.75 1a6.86 6.86 0 003.9-.48zM581.71 270.37c.91.12 1.64-.29 1.62-.9s-.76-1.83-1.58-1.43-.95 2.2-.04 2.33zM-697.4 368c0-.26-.89-.43-2-.39a19 19 0 00-3.94.47c0 .19.88.7 2 .73s3.94-.55 3.94-.81zM588.24 264.61a1.27 1.27 0 00-1.71.05c-.49.46-1.45 2.13-.49 2.16s2.65-1.82 2.2-2.21zm1030.97 41.22c0 .26.89.44 2 .4a18.74 18.74 0 003.93-.48 2.65 2.65 0 00-2-.73c-1.08-.02-3.94.56-3.93.81zm17.12-.76c0-.26-.85-.43-1.93-.39a18.81 18.81 0 00-3.93.47c0 .19.86.7 1.93.73s3.92-.56 3.93-.81zM385.85 280.56c.24-.55-.12-1-.79-1s-3.07.5-2.44.94 3 .61 3.23.06zm1219.02 30.63c0 .26.86.43 1.94.39a18.91 18.91 0 003.93-.47c0-.19-.86-.69-1.93-.73s-3.92.56-3.94.81zM1336.12 423c.16-.58.12-1-.09-1s-1.35.47-1.33 1a7.59 7.59 0 00.31 2c.13 0 .99-1.46 1.11-2zm-22.52-2.25a2 2 0 00-.17 1.23c.06.52.69 2.19 1.24 2.13s1.66-.79 1.16-1.51-2.08-2-2.23-1.85zm-479.91 81.53c0-.26-.62-.46-1.4-.43a12.27 12.27 0 00-2.87.38c0 .15.6.62 1.38.7s2.87-.39 2.89-.65zm125.73-13.83c.35 0 .31-.33-.1-.7s-1.51-1.15-1.55-.87 1.3 1.58 1.65 1.57zm304.05-184.03c-.53-.77-1.18-1.74-2.25-3.32-.17 3.9-.17 3.9 2.25 3.32zm165.11-6.14c0 .26.65.45 1.43.42a11.66 11.66 0 002.87-.38c0-.16-.63-.63-1.43-.71s-2.87.39-2.87.67zm-172 4.96l-1.93 3.36c2.13.62 3.86.81 1.93-3.36zm253.73-3.24c0-.26-.62-.45-1.4-.42a11.86 11.86 0 00-2.87.37c0 .15.6.62 1.38.7s2.87-.37 2.89-.65zm-72.82 4l-3.32 2.25c3.92.18 3.92.18 3.32-2.25zm105.51-.42c0-.15-.74-.24-1.62-.21a14.72 14.72 0 00-3.21.39c0 .15.74.51 1.63.48a12 12 0 003.2-.66zm-765.56-23.44c0 .27.7.5 1.57.51s3.14-.13 3.15-.33-.67-.78-1.55-.87-3.17.42-3.17.69zm183.4-11.91c-.16.57-.12 1 .09 1s1.34-.48 1.33-1a7.66 7.66 0 00-.31-2 5.5 5.5 0 00-1.11 2zM623.08 294c0 .15.73.24 1.62.21a15.66 15.66 0 003.21-.38c0-.15-.74-.51-1.63-.48a12 12 0 00-3.2.65zM405 280.71l-3.38-1.07c-.92 1.79.54 2.05 3.38 1.07zm478.51-20.53c0 .26.65.45 1.43.42a11.45 11.45 0 002.86-.39c0-.15-.62-.62-1.42-.7s-2.88.41-2.87.67zM308 279.47c0-.15-.74-.24-1.63-.21a14.9 14.9 0 00-3.21.39 2.14 2.14 0 001.63.47 11.75 11.75 0 003.21-.65zm331.86-11.89c0 .14.73.24 1.62.2a15.07 15.07 0 003.21-.38 2.12 2.12 0 00-1.63-.48 11.49 11.49 0 00-3.2.66zM257 279.23c-.55.58-.52 1.12.05 1.2s2.18-.1 2.27-.61-1.82-1.16-2.32-.59zm18.08.96l1.07-3.37c-1.74-.82-2.05.54-1.07 3.37zm-542.52 14.05c0-.27-.7-.5-1.57-.51a11 11 0 00-3.16.33c0 .2.68.79 1.56.87s3.17-.42 3.17-.69zM-659 307.11c0 .15.73.24 1.62.21a15.38 15.38 0 003.21-.39c0-.15-.74-.51-1.63-.48a11.87 11.87 0 00-3.2.66zM329.11 268c.32-.63.21-1.14-.22-1.13s-1.75.5-1.73 1 1.64.77 1.95.13zm197.54-7.84c0-.15-.73-.24-1.62-.21a15.59 15.59 0 00-3.21.39 2.12 2.12 0 001.63.48 11.87 11.87 0 003.2-.66zM1480 293.17c0 .26.65.45 1.43.42a12.08 12.08 0 002.86-.38c0-.16-.62-.63-1.42-.71s-2.87.41-2.87.67zm183.34 72.33c0 .26.61.46 1.39.43a12.18 12.18 0 002.87-.38c0-.15-.6-.62-1.37-.7s-2.88.39-2.89.65zm39.53 2.87c-.31.64-.21 1.15.23 1.13s1.75-.49 1.73-1-1.64-.77-1.96-.13zm62.56.04l1.69-2.23c-2.27-.09-2.27-.09-1.69 2.23zm-2387.76 90.34c.53.77 1.19 1.74 2.25 3.32.17-3.92.17-3.92-2.25-3.32zm2368.48-73.35c.35 0 .31-.32-.09-.7s-1.52-1.14-1.56-.86a3.68 3.68 0 001.65 1.56zM1245.07 318c0 .15.74.25 1.62.21a15.56 15.56 0 003.21-.38c0-.15-.74-.51-1.63-.48a12.15 12.15 0 00-3.2.65zm-66.41 18.77l3.32-2.25c-3.92-.17-3.92-.17-3.32 2.25zm312.5 16.23c-.6-.21-1.07-.15-1.06.14s.48 1.47 1 1.46a7.51 7.51 0 002-.31c.08-.18-1.35-1.12-1.94-1.29zM2.12 289.27c0 .25.38.45.87.43a5.38 5.38 0 001.81-.33c0-.15-.35-.61-.85-.7s-1.83.33-1.83.6zm317.43-10.02c0 .25.36.45.85.43a5.56 5.56 0 001.82-.32 1.09 1.09 0 00-.82-.69c-.49-.1-1.82.33-1.85.58zm804.99-28.02c0-.26-.36-.46-.85-.44a5.49 5.49 0 00-1.81.32c0 .15.33.6.82.69s1.82-.32 1.84-.57zm-593.04 9.02c0 .15.49.25 1.08.23a7.17 7.17 0 002.14-.34 1.2 1.2 0 00-1.09-.5 5.63 5.63 0 00-2.13.61zm-179.65 19.43c0 .25.38.45.87.43a5.38 5.38 0 001.81-.33c0-.15-.35-.61-.85-.7s-1.83.35-1.83.6zm39.15-.37c-.25 0-.44.39-.43.88a5.08 5.08 0 00.34 1.8c.14 0 .6-.35.69-.85s-.38-1.83-.6-1.83zm-128.06-4.44c0 .25.39.45.88.43a5.44 5.44 0 001.81-.33 1.12 1.12 0 00-.86-.7c-.49-.08-1.77.35-1.83.6zM52 285.83c0 .25.39.44.88.43a5.44 5.44 0 001.81-.33 1.12 1.12 0 00-.85-.7c-.5-.09-1.84.34-1.84.6zm-657.2 18.37c-.15 0-.25.49-.23 1.08a6.79 6.79 0 00.35 2.14 1.22 1.22 0 00.5-1.1 5.42 5.42 0 00-.62-2.12zm323.52-10.98c0 .25.39.44.88.42a5 5 0 001.81-.33 1.14 1.14 0 00-.85-.69c-.5-.09-1.83.38-1.84.6zm517.08-12.7c0-.15-.5-.26-1.09-.23a7.17 7.17 0 00-2.14.34 1.22 1.22 0 001.1.5 5.75 5.75 0 002.13-.61zm72.47-12.14c0 .26.39.45.88.43a5.14 5.14 0 001.81-.33 1.12 1.12 0 00-.85-.69c-.5-.09-1.83.34-1.84.59zm293.45-4.3c0 .26.36.45.85.43a5.3 5.3 0 001.82-.32 1.11 1.11 0 00-.82-.69c-.49-.1-1.83.32-1.85.58zm-215.5-8.37c0-.26-.36-.45-.85-.43a5.49 5.49 0 00-1.81.32c0 .14.33.59.82.69s1.82-.29 1.84-.58zm1405.62 100.14c0-.26-.37-.45-.86-.43a5.24 5.24 0 00-1.81.32c0 .14.34.59.82.69s1.83-.32 1.85-.58zM1610 347.22c.74-1 .69-1.68-.1-1.42s-1.74 1-.91 1.31l.78.08zm-66.26-14.56c0-.26-.39-.45-.88-.43a5.19 5.19 0 00-1.81.33 1.14 1.14 0 00.86.69c.49.09 1.82-.34 1.83-.59zm43.74-12.76c0 .25.39.45.88.43a5.38 5.38 0 001.81-.33 1.12 1.12 0 00-.85-.7c-.5-.08-1.83.35-1.84.6zm7.4-.41c0-.25-.39-.45-.88-.43a5.31 5.31 0 00-1.8.33c0 .15.35.61.85.7s1.83-.35 1.83-.6zm-303.38 7.15c.15 0 .25-.49.23-1.08a6.79 6.79 0 00-.35-2.14 1.21 1.21 0 00-.5 1.1 5.6 5.6 0 00.62 2.12zm184.5-10.72c0 .25.39.45.88.43a5.44 5.44 0 001.81-.33 1.12 1.12 0 00-.86-.7c-.47-.09-1.83.35-1.83.6zM562.58 469.49c-.26 0-.49.46-.52 1s.06 2.07.25 2.09a1.26 1.26 0 00.86-1c.09-.58-.34-2.08-.59-2.09zm-385.7 10.2c0 .25.38.44.87.42a4.92 4.92 0 001.81-.33c0-.14-.35-.6-.85-.69s-1.83.34-1.83.6zm1193.83-43.75c0 .25.39.44.88.42a4.92 4.92 0 001.81-.33c0-.14-.35-.6-.85-.69s-1.83.34-1.84.6zm89.29-21.23c0-.14-.5-.25-1.09-.23a7.1 7.1 0 00-2.14.35 1.22 1.22 0 001.1.5 5.54 5.54 0 002.13-.62zm300.43-41.46c0 .26.36.45.85.43a5.3 5.3 0 001.82-.32 1.11 1.11 0 00-.83-.69c-.48-.1-1.82.33-1.84.58zM-615 458.56c0-.26-.36-.45-.85-.44a5.44 5.44 0 00-1.81.33c0 .14.33.59.82.69s1.77-.33 1.84-.58zm4.07-2.51c-.14 0-.25.5-.22 1.09a6.86 6.86 0 00.34 2.14 1.22 1.22 0 00.5-1.1 5.54 5.54 0 00-.62-2.13zm2370.15-87.18c.26 0 .45-.39.43-.88a5.19 5.19 0 00-.33-1.81 1.12 1.12 0 00-.69.86c-.09.49.37 1.82.59 1.83zm23.53-2.87c0 .26.36.45.85.43a5.3 5.3 0 001.82-.32 1.11 1.11 0 00-.83-.69c-.48-.12-1.82.3-1.84.58zM-55.18 310.73c0 .25.39.44.88.43a5.38 5.38 0 001.81-.33 1.1 1.1 0 00-.85-.7c-.5-.13-1.83.34-1.84.6zm843.9-31.13c0-.15-.5-.25-1.09-.23a6.66 6.66 0 00-2.13.35c0 .14.5.51 1.09.49a5.75 5.75 0 002.13-.61zm-324.18 2.47c0 .14.49.25 1.08.23a7 7 0 002.14-.35c0-.15-.5-.52-1.09-.5a5.48 5.48 0 00-2.13.62zM-32.33 301c.15 0 .25-.5.23-1.09a6.66 6.66 0 00-.35-2.13c-.15 0-.52.5-.5 1.09a5.54 5.54 0 00.62 2.13zm23.13-3.45c0-.15-.49-.26-1.08-.23a7.11 7.11 0 00-2.14.34c0 .15.5.52 1.09.5a5.69 5.69 0 002.13-.61zm1326.32 14.37c0-.25-.39-.44-.88-.43a5.44 5.44 0 00-1.81.33 1.12 1.12 0 00.86.7c.49.09 1.82-.34 1.83-.6zm-64.83 2.93c.25 0 .44-.39.42-.88a5 5 0 00-.33-1.81 1.14 1.14 0 00-.69.86c-.09.49.31 1.82.6 1.83zm-37.86-5.48c0 .26.39.45.88.43a5.19 5.19 0 001.81-.33 1.12 1.12 0 00-.86-.69c-.5-.09-1.83.34-1.83.59zm9.01-.47c0-.25-.39-.44-.88-.43a5.44 5.44 0 00-1.81.33 1.12 1.12 0 00.86.7c.49.09 1.82-.34 1.83-.6zm116.65-4.13c0 .25.39.44.88.43a5.38 5.38 0 001.81-.33c0-.15-.35-.61-.85-.7s-1.83.34-1.84.6zm-2022.71 70.76c0-.26-.36-.45-.85-.43a5.19 5.19 0 00-1.81.32c0 .14.33.59.81.69s1.83-.32 1.85-.58zm2089.05-76.98c-.26 0-.45.36-.44.85a5.19 5.19 0 00.33 1.81c.14 0 .59-.33.69-.82s-.33-1.82-.58-1.84zm17 0c0 .15.5.25 1.09.23a6.66 6.66 0 002.13-.35c0-.14-.5-.52-1.09-.49a5.57 5.57 0 00-2.13.61zm-2116.74 75.9c0 .25.38.44.87.42a4.92 4.92 0 001.81-.33c0-.14-.35-.6-.85-.69s-1.83.34-1.83.6zm-8.45-1.51c0-.15-.49-.25-1.09-.23a6.66 6.66 0 00-2.13.35c0 .14.5.51 1.09.49a5.75 5.75 0 002.13-.61zm-5.32-4.58c0-.26-.36-.45-.85-.43a5.3 5.3 0 00-1.82.32 1.11 1.11 0 00.82.69c.49.06 1.83-.32 1.85-.58zm21.82-8.01c-.26 0-.49.46-.52 1s.06 2.08.25 2.09a1.24 1.24 0 00.86-1c.09-.54-.33-2.09-.59-2.09zm2221.42-87.53c-.26 0-.45.36-.43.85a5.19 5.19 0 00.32 1.81c.14 0 .59-.33.69-.81s-.32-1.83-.58-1.85zm-142.54 24.27c.1 0 .17-.25.16-.54s-.12-1.08-.22-1.07a.57.57 0 00-.33.55 2.28 2.28 0 00.39 1.06zm-61.92 8.66c-.06-.06-.3.07-.54.29s-.77.85-.67.94a.6.6 0 00.71-.13 3 3 0 00.5-1.1zm24.23-.11c0-.1-.24-.17-.54-.16s-1.07.12-1.07.22a.6.6 0 00.55.34c.3-.04 1.07-.3 1.06-.4zM-414.15 453.68c-.1 0-.17.25-.16.55s.12 1.07.22 1.06a.58.58 0 00.34-.55 2.27 2.27 0 00-.4-1.06zm1585.44-143.6c-.1 0-.17.25-.16.54s.12 1.07.22 1.07a.61.61 0 00.33-.55c-.01-.3-.29-1.07-.39-1.06zm37.9-1.46c-.06-.05-.3.08-.53.29s-.77.86-.67.95a.58.58 0 00.7-.13 3 3 0 00.5-1.11zm28.15-.96c-.1 0-.17.24-.16.54s.12 1.07.22 1.07a.6.6 0 00.34-.55c-.01-.3-.3-1.07-.4-1.06zM1715.42 386c0-.1-.25-.17-.55-.16s-1.07.12-1.06.22a.57.57 0 00.55.33 2.28 2.28 0 001.06-.39zm-302.29-84.79c.1 0 .17-.24.16-.54s-.12-1.07-.22-1.07a.61.61 0 00-.33.55c.01.3.26 1.07.39 1.06zm-2130.19 74.84c-.1 0-.17.25-.16.55s.12 1.07.22 1.06a.57.57 0 00.33-.55 2.28 2.28 0 00-.39-1.06zm2422.12 16.1c-.09 0-.17.25-.15.55s.12 1.07.21 1.06a.58.58 0 00.34-.55 2.27 2.27 0 00-.4-1.06zm-434.69-88.21c0-.1-.25-.17-.55-.16s-1.07.12-1.06.22a.59.59 0 00.55.33 2.4 2.4 0 001.06-.39zm207.75-29.31c-.09 0-.17.25-.15.55s.12 1.07.21 1.06a.58.58 0 00.34-.55 2.27 2.27 0 00-.4-1.06zm-40.33-.13c-.1 0-.17.25-.16.54s.12 1.07.22 1.07a.59.59 0 00.34-.55c-.02-.3-.3-1.07-.4-1.06zM574.16 475.54c.1 0 .17-.25.16-.54s-.12-1.07-.22-1.07a.59.59 0 00-.34.55c.02.3.3 1.07.4 1.06zm755.51-206.76c.1 0 .17-.25.16-.54s-.12-1.07-.22-1.07a.58.58 0 00-.34.55 2.23 2.23 0 00.4 1.06zm-50.84.22c.06-.06-.07-.3-.29-.53s-.85-.78-.94-.68a.61.61 0 00.12.71 3.12 3.12 0 001.11.5zm-426.41 12.43c-.1 0-.17.25-.16.54s.12 1.08.22 1.07a.58.58 0 00.34-.55 2.27 2.27 0 00-.4-1.06zm570.77 10.63c0 .1.25.17.55.16s1.07-.12 1.07-.22a.6.6 0 00-.55-.34 2.39 2.39 0 00-1.07.4zm16.81-1.51c-.1 0-.17.25-.16.54s.12 1.07.22 1.07a.58.58 0 00.34-.55 2.27 2.27 0 00-.4-1.06zm-3.47-6.33c-.1 0-.17.25-.16.55s.12 1.07.22 1.06a.58.58 0 00.34-.55 2.27 2.27 0 00-.4-1.06zm31.47-2.05c0-.09-.24-.17-.54-.15s-1.07.11-1.07.21a.6.6 0 00.55.34c.3-.01 1.06-.3 1.06-.4zM183.92 480.16c.1 0 .17-.25.16-.54s-.12-1.07-.22-1.07a.6.6 0 00-.34.55c.01.3.3 1.07.4 1.06zm1292.95-200.64c.1 0 .17-.25.16-.54s-.12-1.08-.22-1.07a.58.58 0 00-.34.55 2.27 2.27 0 00.4 1.06zm7.13-1.16c0-.1-.25-.17-.55-.16s-1.07.12-1.06.22a.58.58 0 00.55.34 2.27 2.27 0 001.06-.4zm-256 58.72c-.06.06.07.3.29.53s.85.78.94.68a.59.59 0 00-.12-.71 3 3 0 00-1.11-.5zm221.46-8.16c-.1 0-.17.25-.16.55s.12 1.07.22 1.06a.58.58 0 00.34-.55 2.27 2.27 0 00-.4-1.06zM-592.41 451.43c0 .1.25.17.55.16s1.07-.12 1.06-.22a.58.58 0 00-.55-.34 2.27 2.27 0 00-1.06.4zM1228.09 337c.05-.06-.08-.3-.29-.53s-.86-.77-1-.67a.58.58 0 00.13.7 3 3 0 001.16.5zm-1879.15 98.66c0-.1-.25-.17-.55-.16s-1.07.12-1.07.21a.6.6 0 00.55.34 2.4 2.4 0 001.07-.39zm2413.75-80.39c0-.1-.25-.17-.55-.16s-1.07.12-1.06.21a.58.58 0 00.55.34 2.4 2.4 0 001.06-.39zm-130.34-10.46c-.1 0-.18.24-.16.54s.12 1.07.21 1.07a.6.6 0 00.34-.55 2.3 2.3 0 00-.39-1.06zm-90.11 1.68c.1 0 .17-.24.16-.54s-.12-1.07-.22-1.07a.6.6 0 00-.34.55c.02.3.3 1.07.4 1.06zm13.85-13.41c-.1 0-.17.25-.16.54s.12 1.08.22 1.07a.58.58 0 00.34-.55 2.27 2.27 0 00-.4-1.06zm5.76.51c0-.1-.25-.17-.55-.16s-1.07.12-1.07.22a.6.6 0 00.55.33 2.28 2.28 0 001.07-.39zm-82.19-21.91c.1 0 .17-.25.16-.54s-.12-1.07-.22-1.07a.59.59 0 00-.34.55c.02.3.3 1.07.4 1.06zm-2157.35 77.45c.1 0 .17-.25.16-.54s-.12-1.08-.21-1.07a.58.58 0 00-.34.55 2.4 2.4 0 00.39 1.06zm1981.56-75.85c.1 0 .17-.24.16-.54s-.12-1.07-.22-1.07a.6.6 0 00-.33.55c.01.3.29 1.07.39 1.06zm180.39-8.22c.1 0 .17-.25.16-.54s-.12-1.07-.22-1.07a.58.58 0 00-.34.55 2.23 2.23 0 00.4 1.06zm-119.52 1.15c-.1 0-.17.25-.16.55s.12 1.07.22 1.07a.61.61 0 00.34-.56 2.27 2.27 0 00-.4-1.06zm-172.31 28.19c0 .1.25.17.55.16s1.07-.12 1.06-.22a.58.58 0 00-.55-.34 2.27 2.27 0 00-1.06.4zm28.08-1.93c-.1 0-.17.25-.16.55s.12 1.07.21 1.06a.58.58 0 00.34-.55 2.4 2.4 0 00-.39-1.06zm493.34 35.16c-.1 0-.17.25-.16.55s.12 1.07.21 1.06a.58.58 0 00.34-.55 2.4 2.4 0 00-.39-1.06zm-77.68-50.39c-.09 0-.17.25-.15.54s.12 1.07.21 1.07a.58.58 0 00.34-.55 2.23 2.23 0 00-.4-1.06zm-40.17-.14c.1 0 .17-.25.16-.55s-.12-1.07-.22-1.06a.58.58 0 00-.34.55 2.27 2.27 0 00.4 1.06zm-2192.22 75.43c-.06 0-.3.08-.53.29s-.78.86-.68.95a.6.6 0 00.71-.13 3 3 0 00.5-1.11zm1772.3-64.17c0-.09-.25-.17-.54-.15s-1.07.12-1.07.21a.58.58 0 00.55.34 2.27 2.27 0 001.06-.4zm-1788.52 60.71c0-.1-.25-.17-.54-.16s-1.07.12-1.07.22a.58.58 0 00.55.34 2.34 2.34 0 001.06-.4zm2368.59-16.54c.1 0 .17-.24.16-.54s-.12-1.07-.22-1.07a.6.6 0 00-.34.55c.01.3.3 1.07.4 1.06zM850.57 270.2c.1 0 .17-.24.16-.54s-.12-1.07-.21-1.07a.6.6 0 00-.34.55 2.3 2.3 0 00.39 1.06zM66.58 296.43c0-.1-.24-.17-.54-.16s-1.07.12-1.07.22a.61.61 0 00.55.33 2.3 2.3 0 001.06-.39zm944.06-36.21c0-.1-.25-.17-.54-.16s-1.07.12-1.07.22a.59.59 0 00.55.33 2.35 2.35 0 001.06-.39zm-116.06 2.64c0-.1-.25-.17-.54-.16s-1.07.12-1.07.22a.59.59 0 00.55.33 2.35 2.35 0 001.06-.39zM379 280.32c0 .1.25.17.54.16s1.08-.12 1.07-.22a.58.58 0 00-.55-.34 2.27 2.27 0 00-1.06.4zm963.41-35.49c0-.1-.25-.17-.54-.16s-1.07.12-1.07.22a.6.6 0 00.55.34c.3-.01 1.07-.3 1.06-.4zM891.17 259c-.06-.05-.3.08-.53.29s-.77.86-.68.95a.6.6 0 00.71-.13 3 3 0 00.5-1.11zm387.45 5.92c0-.1-.25-.17-.55-.16s-1.07.12-1.06.21a.58.58 0 00.55.34 2.4 2.4 0 001.06-.39zm-473.1 13.39c-.1 0-.17.25-.16.54s.12 1.07.22 1.07a.58.58 0 00.34-.55 2.23 2.23 0 00-.4-1.06zM8.14 305.92c.1 0 .17-.25.16-.55s-.12-1.07-.22-1.06a.58.58 0 00-.34.55 2.27 2.27 0 00.4 1.06zM1028 268.54c.09 0 .16-.24.15-.54s-.12-1.07-.21-1.07a.6.6 0 00-.34.55c-.01.3.28 1.07.4 1.06zm-521.4 16.6c0-.1-.25-.17-.55-.16s-1.07.12-1.06.22a.58.58 0 00.55.34 2.27 2.27 0 001.06-.4zm-173.28-17.85c0-.1-.25-.17-.54-.16s-1.07.12-1.07.22a.59.59 0 00.55.34c.3-.01 1.07-.3 1.06-.4zM263 265.93c-.09 0-.17.24-.16.54s.12 1.07.22 1.07a.6.6 0 00.34-.55c-.01-.3-.3-1.07-.4-1.06zm54.62 13.23c0-.1-.24-.17-.54-.16s-1.07.12-1.07.22a.6.6 0 00.55.34c.3-.01 1.07-.3 1.06-.4zm-919.08 32.96c.1 0 .17-.24.16-.54s-.12-1.07-.22-1.07a.61.61 0 00-.33.55c.01.3.29 1.07.39 1.06zM228 280.11c-.1 0-.17.25-.16.55s.12 1.07.22 1.06a.58.58 0 00.34-.55 2.27 2.27 0 00-.4-1.06zm962.74-35.99c0 .09.25.17.54.16s1.07-.12 1.07-.22a.59.59 0 00-.55-.34c-.3.01-1.07.28-1.06.4zM-319.87 297c-.1 0-.17.24-.16.54s.12 1.07.22 1.07a.6.6 0 00.34-.55c-.01-.33-.3-1.06-.4-1.06zm1540.47-54.87c.1 0 .17-.25.16-.55s-.12-1.07-.22-1.07a.6.6 0 00-.34.55 2.27 2.27 0 00.4 1.07zM198.85 276.34c-.09 0-.17.25-.15.55s.11 1.07.21 1.06a.58.58 0 00.34-.55 2.27 2.27 0 00-.4-1.06zM572 263.57c0 .09.25.17.54.16s1.08-.12 1.07-.22a.58.58 0 00-.55-.34 2.27 2.27 0 00-1.06.4zm-352 12c.1 0 .17-.25.16-.55s-.16-1.02-.24-1.02a.58.58 0 00-.34.55 2.27 2.27 0 00.42 1.02zm1007.61-37.82c0-.1-.25-.17-.54-.16s-1.07.12-1.07.21a.58.58 0 00.55.34 2.4 2.4 0 001.06-.39zm9.67-.36c0-.1-.25-.17-.55-.16s-1.07.12-1.06.22a.58.58 0 00.55.34 2.27 2.27 0 001.06-.4zM222.9 272.23c-.1 0-.17.25-.16.55s.12 1.07.22 1.07a.6.6 0 00.34-.55 2.27 2.27 0 00-.4-1.07zm-851.38 165.18c-.93-.1-1.58.38-1.45 1.06s1.17 2.33 2 1.8.37-2.76-.55-2.86zm-11.58 10.03c.1 0 .17-.25.16-.54s-.12-1.07-.22-1.07a.59.59 0 00-.33.55 2.35 2.35 0 00.39 1.06zm1839.99-148.09c-.1 0-.17.25-.16.54s.12 1.07.22 1.07a.6.6 0 00.34-.55c-.01-.3-.33-1.07-.4-1.06z" transform="translate(717.22 -232.5)"/></svg>