<svg id="Слой_1" data-name="Слой 1" xmlns="http://www.w3.org/2000/svg" viewBox="0 0 524 308.17"><defs><style>.cls-3{fill:#ff79c6}.cls-5{fill:#85857b}.cls-6{fill:#50d94b}.cls-7{fill:#e4fa8c}</style></defs><rect width="524" height="308.17" rx="3.25" ry="3.25" fill="#282828"/><rect x="11" y="13.17" width="503" height="285" rx="3.25" ry="3.25" fill="#282a36"/><rect class="cls-3" x="77" y="27.67" width="60" height="12" rx="1.25" ry="1.25"/><rect x="128" y="142.67" width="82" height="12" rx="1.25" ry="1.25" fill="#ddebf2"/><rect class="cls-3" x="71" y="47.67" width="34" height="12" rx="1.25" ry="1.25"/><rect class="cls-3" x="70" y="84.67" width="34" height="12" rx="1.25" ry="1.25"/><rect class="cls-3" x="68" y="277.67" width="34" height="12" rx="1.25" ry="1.25"/><rect class="cls-5" x="31" y="29.17" width="10" height="9" rx="1.25" ry="1.25"/><rect class="cls-5" x="31" y="49.17" width="10" height="9" rx="1.25" ry="1.25"/><rect class="cls-5" x="31" y="68.17" width="10" height="9" rx="1.25" ry="1.25"/><rect class="cls-5" x="31" y="87.17" width="10" height="9" rx="1.25" ry="1.25"/><rect class="cls-5" x="31" y="106.17" width="10" height="9" rx="1.25" ry="1.25"/><rect class="cls-5" x="31" y="125.17" width="10" height="9" rx="1.25" ry="1.25"/><rect class="cls-5" x="31" y="144.17" width="10" height="9" rx="1.25" ry="1.25"/><rect class="cls-5" x="31" y="164.17" width="10" height="9" rx="1.25" ry="1.25"/><rect class="cls-5" x="31" y="183.17" width="10" height="9" rx="1.25" ry="1.25"/><rect class="cls-5" x="25" y="202.17" width="16" height="9" rx="1.33" ry="1.33"/><rect class="cls-5" x="25" y="221.17" width="16" height="9" rx="1.33" ry="1.33"/><rect class="cls-5" x="25" y="240.17" width="16" height="9" rx="1.33" ry="1.33"/><rect class="cls-5" x="25" y="259.17" width="16" height="9" rx="1.33" ry="1.33"/><rect class="cls-5" x="25" y="279.17" width="16" height="9" rx="1.33" ry="1.33"/><rect class="cls-3" x="82" y="124.67" width="34" height="12" rx="1.25" ry="1.25"/><rect class="cls-3" x="82" y="142.67" width="42" height="12" rx="1.25" ry="1.25"/><rect class="cls-3" x="216" y="142.67" width="42" height="12" rx="1.25" ry="1.25"/><rect class="cls-3" x="82" y="104.67" width="34" height="12" rx="1.25" ry="1.25"/><rect class="cls-3" x="86" y="201.67" width="34" height="12" rx="1.25" ry="1.25"/><rect class="cls-3" x="85" y="219.67" width="34" height="12" rx="1.25" ry="1.25"/><rect class="cls-3" x="77" y="237.67" width="34" height="12" rx="1.25" ry="1.25"/><rect class="cls-3" x="82" y="162.67" width="34" height="12" rx="1.25" ry="1.25"/><rect class="cls-6" x="139" y="27.67" width="38" height="12" rx="1.25" ry="1.25"/><rect class="cls-6" x="125" y="124.67" width="36" height="12" rx="1.25" ry="1.25"/><rect class="cls-6" x="107" y="47.67" width="41" height="12" rx="1.25" ry="1.25"/><rect class="cls-6" x="124" y="104.67" width="54" height="12" rx="1.25" ry="1.25"/><rect class="cls-6" x="249" y="124.67" width="54" height="12" rx="1.25" ry="1.25"/><rect class="cls-6" x="94" y="182.67" width="22" height="12" rx="1.25" ry="1.25"/><rect class="cls-6" x="124" y="201.67" width="22" height="12" rx="1.25" ry="1.25"/><rect class="cls-6" x="124" y="219.67" width="30" height="12" rx="1.25" ry="1.25"/><rect class="cls-6" x="124" y="162.67" width="30" height="12" rx="1.25" ry="1.25"/><rect class="cls-6" x="254" y="201.67" width="30" height="12" rx="1.25" ry="1.25"/><rect class="cls-7" x="150" y="47.67" width="30" height="12" rx="1.25" ry="1.25"/><rect class="cls-7" x="184" y="104.67" width="56" height="12" rx="1.25" ry="1.25"/><rect class="cls-7" x="313" y="124.67" width="188" height="12" rx="1.25" ry="1.25"/><rect class="cls-7" x="165" y="162.67" width="336" height="12" rx="1.25" ry="1.25"/><rect class="cls-7" x="168" y="124.67" width="72" height="12" rx="1.25" ry="1.25"/><rect class="cls-7" x="128" y="182.67" width="88" height="12" rx="1.25" ry="1.25"/><rect class="cls-7" x="157" y="200.67" width="88" height="12" rx="1.25" ry="1.25"/><rect class="cls-7" x="303" y="201.67" width="140" height="12" rx="1.25" ry="1.25"/><rect class="cls-7" x="163" y="219.67" width="338" height="12" rx="1.25" ry="1.25"/></svg>