<svg id="Слой_1" data-name="Слой 1" xmlns="http://www.w3.org/2000/svg" viewBox="0 0 123.05 192.36"><defs><style>.cls-2{fill:none;stroke:#bc572a;stroke-miterlimit:10}.cls-4{fill:#e9e533}</style></defs><path d="M383.77 243.49s-28 7.75-30 68.75c-.62 34.5.88 40.88 5.5 54.75s19.5 20.25 28.5 22.75 32.17 4.17 50.84 2.5 31-30.33 33-38.66 18.33-77.67-20.67-104.67c-39-19-67.17-5.42-67.17-5.42z" transform="translate(-353.64 -200.55)" fill="#e15b33"/><path class="cls-2" d="M432.44 244.08s36.18 16.83 37.83 62.5S444.08 391 444.08 391" transform="translate(-353.64 -200.55)"/><path class="cls-2" d="M438.61 392.24s25.58-78.87 20.66-102.66-23.5-37.67-23.5-37.67m-27.1-5.75s-32.9 44.08-30.67 111.33a132.93 132.93 0 008.09 31.76" transform="translate(-353.64 -200.55)"/><path class="cls-2" d="M404.29 392.19S401 267.74 410 256.24a71.59 71.59 0 015.15-7.64m4.52 0s5.1 5.1 3.85 22.24-.95 116.4-3.85 121.4m6.69-145.52s14.91 11.8 19.91 30.16 3.84 40.82 3.84 40.82M399.75 241s-27.75 17-35.48 56.49 2.45 77.24 10 86.62" transform="translate(-353.64 -200.55)"/><path d="M386.11 243.41a20.07 20.07 0 0110.83-5.17c6.83-1 7.33-4.83 7.33-4.83s5.34-27.5 10.17-31.83c5.17-2.84 18.33 1 19.33 2s1.34 18.33-1.33 29.33c-1.17 5.5.5 4.83.5 4.83s6 1.84 9.67 6.34c-3.84-1.5-10.17 0-10.17 0s3.17 3.66 3.33 7.83c-1.83-2.33-8.16-6.17-13.33-5.33s-10.17 2.33-14.67 7.83c-.66-3.83 1.67-11 1.67-11a8.18 8.18 0 00-6 1.83 5.61 5.61 0 013.17-4c1.5-.5-16.84-.83-20.5 2.17z" transform="translate(-353.64 -200.55)" fill="#4d3734"/><path class="cls-4" d="M390.77 287.74l15-15.08s3.84-4.08 5.67 0 7.83 17.75 7.83 17.75 2.29 4.42-4.1 4-8-.25-8.81-5.17c-2.09-4.39-5.17.34-5.17.34s.92 3.58-2.33 3.41-7.67-.25-7.67-.25-4.82-.57-.42-5zm40.13 6.7s.37-6.07 5.25-4.07c2.62 1.83 1.62 5.5 1.62 5.5a33.74 33.74 0 0011.63 0c2.75-.25-3.38-10-3.38-10L437.15 273s-2.38-3.87-5.13 1.13-6.62 15.62-8.25 17.62c-.66 2.7 0 4.63 1.88 4s4.85.58 5.25-1.31z" transform="translate(-353.64 -200.55)"/><path class="cls-4" d="M378 278.49s2 28 3.75 30.75c2.75 0 9.75-6 9.75-6s.84-1 1.17.25 3.58 12.84 4.33 13.5c.67.95 1.34 2.92 3.92.59a34.15 34.15 0 014.88-3.71 1.47 1.47 0 012 .5c.79 1.21 6.41 10.46 6.41 10.46s1.79 2.25 3.75-.38a19.82 19.82 0 014.67-4.33 1.54 1.54 0 012.37.79c.84 1.83 4.3 7.17 4.3 7.17s1.66 1.33 2.54 0 4.58-6.71 4.58-6.71 2.38-4.63 5.5.58c2.29 5.5 2 5.17 2 5.17s1.09 2.41 1.42-.09-1.88-13.65 6.54-11.18c4.42 1.89 5 .89 4.92-5.94s.66-7.92 2.66-9.92 5.63-5.75 3.25-12.5 4.88-2.37 4.63 2.13-1.88 24-6.38 34-3.25 25.75-5.37 29.5-.5 9.25-8.38 7.25c-3.37-6.13-2.62-8.13-8-12.13-1.21-1.12-1.81 4.76-1.81 4.76s-.63 11.5-5.75 10.13-5.63-4.38-8.13-15c-.81-4.25-4.75 7.75-4.75 7.75s-1.75 11.75-8.62 5.25c-4.21-7.79-7.79-15.21-7.38-16.88s-5 7.5-6.58 11.17-7.33 2.17-7.92-.92.34-12.16-1.16-17.25c-.5-1.91-3.92 7.67-6.84 10.5-5.66 6.67-5.91-3.58-8.91-22.66-1.67-23.6 3.5-42.35 6.64-46.6z" transform="translate(-353.64 -200.55)"/></svg>