<svg id="Слой_1" data-name="Слой 1" xmlns="http://www.w3.org/2000/svg" viewBox="0 0 112.49 111.23"><defs><style>.cls-4{stroke-miterlimit:10;fill:#edd633;stroke:#a84c1e}</style></defs><path d="M429.66 230.48s12.42-1.5 16.92 0 24.17 8.5 31.17 31.34-6.5 40.5-21.34 51.66-46 10-65.16 4-23.84-27.83-23-48.16 16.16-35.84 28.83-38.17 19.74-1.33 19.74-1.33z" transform="translate(-367.66 -211.23)" stroke-miterlimit="10" fill="#e27133" stroke="#7d3333"/><path d="M430 230.44s30.12 49 3.48 90.89" transform="translate(-367.66 -211.23)" stroke="#ce632e" fill="none" stroke-miterlimit="10"/><path d="M423.31 233.87s5.74 30 1.23 88.07m9.32-91.85c2.32-.15 67.87 41.38 4.81 90.46m-22.15-88.89s-39.65 41.22-1 88.89m-3.69-90.94s-71.21 39.93-4.63 90.94" transform="translate(-367.66 -211.23)" fill="none" stroke="#bc572a" stroke-miterlimit="10"/><path class="cls-4" d="M391.83 277.48s-4.62.75-5.5-2.62 4.13-4.38 6.5-5 5-1.5 6.63 1.37-2.88 4.56-2.88 4.56-2.37 7.69 9 13.44c6.13 2.63 25.5 1.38 28.5 0s8.88-1.89 15.5-13.44a5.37 5.37 0 01-2-5.81c1.13-3.62 5.13-2.25 5.13-2.25s6.37.63 7.37 3.63-.5 5.25-3.87 5.25c-2.38 1.75-1.38 5.5-14.13 15.12s-34.37 3.63-36.12 3-11.88-6.25-14.13-17.25z" transform="translate(-367.66 -211.23)"/><path class="cls-4" d="M439.6 241.15s15.33 14.67 11 20.17-15.83 7.66-20.83 1.33-2-20.67 2.5-21.5 4.16-1.83 7.33 0zm-34.35 0s-15.34 14.67-11 20.17 15.83 7.66 20.83 1.33 2-20.67-2.5-21.5-4.17-1.83-7.33 0z" transform="translate(-367.66 -211.23)"/><path d="M429.58 232.11c1-4.13-7.12-20.9-11.5-20.88-3.87.75-5.33 3.59-6.25 7 7.75 7.25 4.25 14.75 4.25 14.75s9.92 2.5 13.5-.87z" transform="translate(-367.66 -211.23)" fill="#573f36"/></svg>