<svg id="Слой_1" data-name="Слой 1" xmlns="http://www.w3.org/2000/svg" viewBox="0 0 122.63 126.2"><defs><style>.cls-2{fill:none;stroke:#b25329;stroke-miterlimit:10}</style></defs><path d="M393.5 247.92s-29.67 9-34.33 45.33 36.33 59.67 36.33 59.67 31 12.33 62-3.67 23-60 23-60-2.67-31.33-33-41.33c-15-1.67-15 0-15 0s-23.33-3.82-30-.74c-4 .4-9 .74-9 .74z" transform="translate(-358.8 -231.25)" fill="#de5b33"/><path class="cls-2" d="M399.72 247.44s-16.22 18.81-12 39.06.8 27 .8 27 7.17 36.72 10 39m17.62-105.06s-8.35 15.56 0 49.56c1.61 22.5 3.11 27.56 3.11 27.56s4.1 30.17 6.54 31.44m4.96-107.17s12.33 20.22 11.67 39.95a208.74 208.74 0 001.32 33.47s5.2 27.58 2.85 31.54m-9.34-106.61s14.38 9.69 18.07 31.63 5.82 67.94 4.12 68.19" transform="translate(-358.8 -231.25)"/><path class="cls-2" d="M445.78 247.73s12.72 2.77 24.72 29.77c7 19.59 1.23 59.45 1.23 59.45M396 247.73S377.2 261.5 376.29 277s-7 14.28-7 14.28l2.2 22.81s9.34 29.47 14.78 32.94" transform="translate(-358.8 -231.25)"/><path d="M413.75 246s7.25-13.23 14-14.73a11.87 11.87 0 017 7.36s-5.56 5.07-5.28 8.86-15.72-1.49-15.72-1.49z" transform="translate(-358.8 -231.25)" fill="#8f634c"/><path d="M410.75 258.5s3 16.5-16 15-1-18.75 4-19.5 11.83 1.77 12 4.5zm9.53 0s-3 16.5 16 15 1-18.75-4-19.5-11.83 1.77-12 4.5z" transform="translate(-358.8 -231.25)" fill="#eae233"/><path d="M371 267.75s-13 27.25-5.25 41.75c10.5 8.25 8.75 7.5 15.25 11.75 2-2.25 1.75-7.75 1.75-7.75s6.75-1.5 10 2.5v7s19.72 3.5 27.36 0v-12.25l10.64-1.5s3.5 12 4 12.5 15 1 18.25-.5v-8l7.75-3.75L462 318a5.82 5.82 0 006-5.75c.5-6 3.95-34.67-5.75-48.52-1.5 5-.5 3.46.25 9.87s-.25 9.4-5.5 3.4c-3.75 4.25-8.75 8.5-17.5 13.5a47.31 47.31 0 003.75 8.5s-6.25 4.18-8.5 2.72-5.5-11.47-5.5-11.47-11.71-2-13.11 0 0 6.75 0 6.75a18.66 18.66 0 01-11.64.5c-1.25-4.5 0-5.5-2-8.5s-12.5 1-14.75-2.5-2.75 8.25-6.5 10.75-7.5-8.75-7.5-8.75l5.75-8s-8.79-8.88-8.5-12.75z" transform="translate(-358.8 -231.25)" fill="#e7e633"/></svg>