<svg id="Слой_1" data-name="Слой 1" xmlns="http://www.w3.org/2000/svg" viewBox="0 0 281.12 107.99"><g id="objects"><path class="cls-1" d="M3.79-57c-.48 0-1-1.07-1.15-.91S1.3-59 1.24-59.45c0-.22-1.23-.8-1.66-.94a1.11 1.11 0 00-1 .35c-.06.14-1.17-2.36-1.63-2.7a4.55 4.55 0 01-.84-2.39 1.79 1.79 0 01.61-1.31l.47-1.62a2.82 2.82 0 00.36-1.84c-.07-.24-.34.08-.4.22a9.82 9.82 0 01-.31-1.8 1.36 1.36 0 00-1-1c-.23 0-.3-1.7-.25-2.25a31.09 31.09 0 01.76-3.37 7.33 7.33 0 000-3.1 31.57 31.57 0 010-3.64c.14-.93 2.4-3.89 3.54-5.07a5.06 5.06 0 012.41-1.3 13.21 13.21 0 002.43-1.6c.33-.35 3.43-.92 4.16-1h.06c.75-.3 4.45-2.22 5.58-2.86 0 0 3.3-2.19 3.3-2.3-.34-.13-1.32-1-1.24-1.28a1.86 1.86 0 011-.73 7.11 7.11 0 012.2 1.92c.24.37 2.58-1.45 2.58-1.45.69.35 2.73.29 3 .59 1.17 1.15 4 1 4 1a8.72 8.72 0 012.27 1.55s1-.7 1.07-1 3.07.08 3.79.34a3.71 3.71 0 002.06-.34l2.34.49c.36.14 2.15.64 2.71.77s1.66.19 1.66.19c.22-.65.44-.83.69-.7a8.79 8.79 0 002.16.81s4.18.83 4.46 1a15.46 15.46 0 002-.23 2.77 2.77 0 011 .15 9 9 0 001 .87s.68-1.11 1.47-.53c.1.07 1.08.82 2.26 1.52l1.14-.4c.32-.13 1.31 1.23 1.31 1.23.48-.79 1-1 1.12-.5H64c.83-.35 1.61.63 2.42.84s1.55-.49 2.31.72c.37.57.82-.15 1.25.41a1 1 0 001.37.36c.46-.23.79.83 1.22.88.84.11 1.68-.3 2.53.66.65.74 1.37.1 2.09.69.68.38 2.79 1.54 3.18 1.74.76.25 3.17.73 3.6.85s2.15 1 2.52.73 3.8 1.62 3.85 1.82 6-.42 7.39 1.66c.14.22.89-1.15 1.31-.21a17.17 17.17 0 002.29 2.87c.38.16 2.3.78 3 .34 3.32 1.72 5.81.44 6 .82l.58 1.64c.7 0 1.45-.89 1.55-.76a1.47 1.47 0 002.26.32c.42.21 1.53.13 1.84.46a5.17 5.17 0 005.8 1.39 5.72 5.72 0 012.33 0c0 .23-.52 1.55-.87 1.55l-1.56.21c-.28.6.24 2.32.51 2s.61.13.92.13c.47 0 5.27.3 5.76-.09l.45-.35c.45.36 1.2.92 1.67 1.22 0 0 1.82-.06 2.51 0h.26c.3.37.58.57.63.45l.06-.16c.46-1.3 1 .88 1.28.46a.89.89 0 011.4-.29s4.61.55 4.66.42.93.3 1.3-.14c.71-.8 1.8 1 2.74.85a11.66 11.66 0 015 .52s1.09-1 1.49 0c0 .17 1-1.31 1-1.31.45.76 1.08 1 1.4.5a4.21 4.21 0 001.56 1h10.77a9.82 9.82 0 003-.34c.22-.18 1.44.92 1.85.72a2.25 2.25 0 011.45 0c.48.17 2.36 0 2.69.45.06.09.83-1.39 1.06-1.5.29.54 1.25 1.78 1.55 1.11 0 0 1.77 1 2.19.35a16.84 16.84 0 014.59-.38c.78.29.78-1.41 1.24-1.49.23 0 .4.74.42 1.2s1.2 1.45 1.28 1.09c.44-1.6 1-1 1.2-2.47.21-.8.72.4.85.4s.51-.82.61-1.11.92.37 1.16-.57c0 0 1 1.79 1 1.94a2.41 2.41 0 01-.32.81c-.46.73.29 2.25-.89 2.38l-.75-1.44c-.54.25-1.66 1.39-2.41 1.18-1-.27-1 1.16-1.69.82a4.87 4.87 0 00-4.91.81c-.32.3-.73-.15-1.13.62-.3.56-1.65-.81-1.71-.55l-.31 1.19c-.93-.38-6.64-.79-6.79-.42l-.46 1.12a2.51 2.51 0 00-2 .2s-.73-1.54-.79-1.31c-.45 1.31-6.44 1.07-6.54.73-.34-.85-.59-1.06-.93 0s-1.5-1.36-1.71-.72c-.32 1-.66.75-1 .75-2.93 0-9.25.1-9.46 0a7.11 7.11 0 01-.78-.93c-.19.52-.48.76-.65.52l-.36.93a4.55 4.55 0 00-1.27-1.27c-.38.17-.93 1.09-1.1.62s-1.28-1.07-2.86-.64h-3.26a4.71 4.71 0 00-2.75.69l-.55-1.4c-.28.83-.66 1.22-.86.88a4.72 4.72 0 01-1.7.62H133a2.91 2.91 0 00-1.89 1c-.16.31 2.15 1.54 2.15 1.54.34-.48 3.26-.95 3.43-.57a7.09 7.09 0 001.82.27c.32.16-1.75 2.52-1.58 2.52s.41.93.44 1.23 1.18-1.22 1.51-.65 1.68-.64 1.68-.83a9.77 9.77 0 00-.53-1.49c-.14-.3.63-1.12 1-1.17s2.39 1.84 2.63 1.76-.09.42-.27.64a9.86 9.86 0 01-.88.62c-.12.13.32.54.42.61a5.77 5.77 0 01.19 1.61c0 .4-.21.6-.27.56a4.47 4.47 0 01-.16-1c0-.18-1.27.75-1.3.63s-1.46 1.3-2 1-.7.73-.4.35h.56c.33.36 1-.34 1.35.15s1.57 2.41 1.76 2.61 4-2.61 4.41-2.72a10.58 10.58 0 012.61 1.11c.31.58 2.23.3 2.18 0s1.51.3 1.53.11.83.32.86 0 1.91 3.19 2.59 3.92c0 0 2.37-1.7 2.09-1.91 0 0-1.12-2.16-1-2s5.81.26 5.81.26c.13.43 1 2.15 1.39 2.15s.83-.82.86-1.09.53 1.3.93 1.67c0 0 3.23-.38 4.27-.38a17.22 17.22 0 01.63-1.88c.26.41.88 2 1 2.23s.26-1 .29-1.58.18.08.2.41 4.18-1.41 4.23-1.31a4.81 4.81 0 010 .85 7.48 7.48 0 003-.6c0-.26 1.17.51 1.17.51.4.63 2.27-.08 2.3-.38s.58-.68 1.24-1l1.21.87a7.08 7.08 0 003.1-1.23c.52-.37 5.43-1.08 5.79-1.31s.89.49 1 .75-.37 1.23-.56 1.53 1.7-.08 1.82-.29 2.29-1 2.4-.62.64-.2.8-.46 1.43.7 2 .47 1-1 1.43-.65S212-57.6 212-57.6a16.63 16.63 0 012.09.09 6.9 6.9 0 003.54-3.72 6.58 6.58 0 01.93-1.49 2.09 2.09 0 00.24-1.18c0-.26-.56-.49-1.37-.2l-.61 2.1a9.17 9.17 0 01-.57-1.21 9 9 0 01-1.24 1.3h-.72a3.2 3.2 0 00-1.52.84l-1.53.1c-.19-.44-5.52.34-5.62.46s.76-2.28.7-2.55.3-.3.42-.24 1.14 1.36 1.69 1.08a3.45 3.45 0 00.7-2c0-.32 2.83-1.83 3.88-2.19a2.88 2.88 0 012.08-.09 4.89 4.89 0 01-1.39 2 4.42 4.42 0 00-1 .44c-.08.06 1.37-.09 2.09-.09a12 12 0 002.83-1.06c.85.12 1.54 1.91 1.54 2.42a1.37 1.37 0 00.61 1.21 23.92 23.92 0 001.23-2.29c0-.14-.48.33-.65.54s-.61-1.5-.61-1.5c0-.28.65-.63.73-.79s.37.17.45.33.52-.76.69-1.21.16 2 0 2.61.45 1.3.53 1.12a4.69 4.69 0 000-1.4 3.56 3.56 0 011.59-1.55 11.71 11.71 0 003-1.63 12.42 12.42 0 011.93-1.1 2.34 2.34 0 00.39-1.09c0-.2.43.37.57.64s.67-.2.82-.47.4.63.44 1-1.84 2.06-1.84 2.13a3.44 3.44 0 001 .13c.3 0 .09 1.22-.07 1.66a.76.76 0 00.51 1s.68-1 1-1c.91-.28 3.83-1.31 4.28-1.58a8 8 0 011.33-.75c.18 0 .33.73.6.08.14-.35 1.1.89 1.18.64.45-1.31 1-.48 1.44-.77l.57-.34c.64-.48 1.41-.57 1.71-.2l1.06-1.37a4.43 4.43 0 012.67.11l.88-1.54a9.94 9.94 0 001.9-.59 12 12 0 001.48-.73 3.32 3.32 0 011.09 0c.06 0 1-1.77 1.33-1.41s.82-.59 1.25-.21l.26.23c.31-.25 1.11-1.3 1.3-1.23s.44 1.14.46 1.31.28 0 .36-.2.25.67.29 1 .72.24 1 .08.48.4.47.63-.52.39-1.15.34c0 0-1.9 2-2.64 1.77-.29-.08-.68-.43-.85.09l-.45 1.41a7.63 7.63 0 00-2.4.8 7.54 7.54 0 00-2.34 1c-.47.56-.9.32-1.34.59 0 0-3.07 2.27-3.85 3h-1.67c-1.15.54-2.75 1.07-3 1.31a17.58 17.58 0 00-1.7 1.67l-.79-.59a4 4 0 01-1.24.15l-1.94 1.62c-.26 0-.48.85-.48 1.07s-1.51 0-1.51 0a6.74 6.74 0 002.2-.18 7 7 0 002.28-.45c.73-1.71 3.26-1.59 3.34-1.42s-.23 1.9-.4 1.63-1.9.71-2 1-.75.26-1 .1a5.36 5.36 0 00-2.55.69l-1.17 1.31c-.17-.48-1.39-.34-1.39-.34a14.05 14.05 0 00-1.6 1.74l-2-.25a9.58 9.58 0 01-1.6 1.8s-3.34.86-3.43 1c-.79 1.11-4.48 2-5.51 2.26h-.1l-.66 1.61c-.81-.37-1-2.42-.83-3s.51-.8.61-.69.93-1.31.92-1.41a10.9 10.9 0 00-2.62.82c0 .13-.5-.11-.63-.21s-2.13 1.31-2.49 1.23l-.93-.32c-1 .68-1.34 5.44-1.53 5.23a6.45 6.45 0 01-.62-1.71c-.06-.33-.39 1.17-.48 1.59s-.49.08-.59-.12-.48-3.41-.69-2.91a2.49 2.49 0 000 1.48 13.26 13.26 0 01-.34 2.26 16.82 16.82 0 00.47 3.32c.07.57-1 0-1.38.22s-1.41 2.46-1.72 2.34-1.49-1.44-1.83-1-5.71 3.29-9.46 2.47a2.25 2.25 0 00-1.9.82c-.23.47.44.86.74.86a.38.38 0 01.3.42.22.22 0 010 .08s-5.26.72-6.23-.26c-.16-.17-.36 0-.49.34s-.6.28-.83-.45c-.07-.23-.34.5-.52.45s-2.52-2.24-3.88-.5a18.19 18.19 0 00-3-.18c-.46.09-.95.48-1.3 1.9v.15a2.38 2.38 0 00-.2-.66 2.91 2.91 0 01.06-1c.06-.22-.63-.39-1.5-.39 0 0-1.58 2.06-1.71 2.3a2.41 2.41 0 00.21 1.31c.13.3-.54.36-.7-.23s-.62-.24-.54-.14a2.89 2.89 0 01.13.88 3.57 3.57 0 01-2.18.28 44.68 44.68 0 01-6.1-.51h-.15c-.15-.41-2 .75-2.64.25s-2.36-.83-2.85 0-2.1.86-2.1.86a2.35 2.35 0 01-1.77-.53 48.07 48.07 0 00-7.16-1.26 9.79 9.79 0 00-2.67.38c-.19.23-1-.81-1.22-.95s-1.71-.13-2.32-.25c-.33 0-.69-.86-1-.59a4 4 0 01-2.15.67c-.13.32-4.09-.54-4.52-.44a1.11 1.11 0 01-1-.74c-.09-.31-.39-.25-.66.14l-.25-.17c-.35-.26-.69 1-1 .25-.59-1.63-1.21.25-1.8-.43-.06.3-.68.17-.73 0s-.6.92-.61.56a2.72 2.72 0 00-1-1.3c-.24-.11-.83 1.39-1 1.66a1.4 1.4 0 01-.67.49 11.66 11.66 0 00.17 2c.08.46.63.34.85.33.65 0 4 1.31 4.63 1.11l2.24-1.48c.86.85 5.32 1.49 5.28 1.87s5.95.3 6 .12 1 1.7 1.58 1.78c0 0 4.83-1 5.64 0 0 0 8.09.54 9.28.53 0 0 8.41.2 8.87.38a10.81 10.81 0 011.68.81l.73-1.11c.35.4 8.2.57 8.3.43s.58-.64.51-.91 2.84 0 2.85-.12a11.47 11.47 0 012.19 1 12.17 12.17 0 003.08-1.3 4.8 4.8 0 00-.13-1.14c0-.21-2.49-.82-2.7-.25l-.37 1a.87.87 0 00-1.37-.42l-.07.06A4.67 4.67 0 01178-29c-.18-.19-.36-.22-.6.35 0 0-.63-1.11-.78-1-.42.16-.89 1-1.24.61a3.49 3.49 0 00-1.91-.66c-.48 0-1-1.79-1.08-2.37s.28-2.1.47-2 .81 2.82 1 2.84a33.42 33.42 0 004.8-.25c.06-.22 1.16.23 1.21.53s1.43-1 1.78-1 .5.71.47.86.45.8.55.21.24-.47.26-.25 1 .78 1.29.94.59-.74.67-1.08a1.61 1.61 0 012.39-1 1.57 1.57 0 01.25.2 21.66 21.66 0 003 0c1.12.46 1.21-.58 1.21-.58.45.32.94.21 1 .08a1.48 1.48 0 012-.34c.83.67 2.74 0 2.74 0 .82 0 1 1.31.8 1.66s-1.12.3-1.45.13c-1-.49-1.43 1.07-1.42 1.14a2.22 2.22 0 00.85.27c.24 0 .43 1.23.43 1.56a2.31 2.31 0 00.25.87 10.42 10.42 0 010 1.58c0 .4 1.23.16 1.66-.17a1 1 0 011.12 0 8.52 8.52 0 00.18-2.1 24.33 24.33 0 00-.6-2.69 8.09 8.09 0 010-1.84c.05-.17 1.87 0 1.93.42.24 1.55 3.67.86 3.67.86.38.26 1.35-1.31 1.82-1.14a9.78 9.78 0 011.45.63l.14-.46.47-1.45c.43.86 1 1.2 1 1.05s.14.42.14.61a2.85 2.85 0 01-.29.88 9.53 9.53 0 000 1.85c0 .41-.44 1.54-.63 1.56s0 .54.5 1.18a6.64 6.64 0 001.82-.74s1.88 0 2-.47c.28-.92.52.39.6.17.25-.75.4-.73.63.06l.09.33c.26-.09.45-1.48.44-1.91a1 1 0 00-.7-.77c-.16 0-.44-1.15-.5-1.6s1.09 0 1.53.3.83-.64 1-.64.23 1 .23 1.3-.69 1-1 1.05.11.77.82 1.55c0 0 1.84-1.6 2.48-1l.53.5a7 7 0 012.12-1 16.68 16.68 0 012.32-1.07c.65-.13 5.67-1.48 5.67-1.48a.66.66 0 001-.42.14.14 0 000-.06l.25 1.1c.08.32 3.86-1.67 3.9-1.5a4.28 4.28 0 010 1.13.43.43 0 00.21.42 6 6 0 00.22-1.12c0-.34.65-.32.87-.21s.73-1.31.85-1.49a2.48 2.48 0 012 .68l.14-.3c.4-.89.83-.41 1.22-.77s.63-.34.94-.62 2.75-.65 3.45-1.3c.3-.25.51 1 .73.34.38-1.13.81-.58 1.22-.76s1.84-1 1.84-1c.56-.32 1.84-1.18 2.83-1.91l.93.52c.29.17.68.45.85-.08.44-1.3 1 0 1.33-.82.45-1.12.91-.74 1.34-.55.75.34 1.45-.55 2.19-.51s2.92-2.09 2.92-2.09c.77-.75 1.49-.56 1.52-.3s.28-.3.36-.57.28-.11.34.09.28-.59.33-.89.8.52 1 .17l.69-1.41a3.06 3.06 0 011.39 1.82c0 .26-.81 1-.8 1a2.13 2.13 0 00.78.13c.21 0 .6-.67.69-.9s.93.38 1 .22-.24-.67-.35-.81.91-.51 1.3-.75.46 0 .33.24.22.47.33.5.27-.8.28-1 1.18-.24 1.25 0 4-3.73 4-3.73c1-.34 1.69-.22 1.44.27a5.57 5.57 0 00-1.19 2.69c-.07.89-.26-.15-.3-.26s-1.29 1.62-1.36 1.45-.5.42-.63.67-.67-.22-.83 0l-.34.35c-.25 1.31-2.6 1.75-2.33 3a1.57 1.57 0 010 .53 4.38 4.38 0 01-.48-.9c-.12-.3-1.64-.12-2.17 0a1.43 1.43 0 01-1.28-.57c-.06-.15-.41.75-.44 1.31s2.41.93 2.3 1-.72.93-1.22.39l-.79 1.15a67.28 67.28 0 00-6.14 3.1s-.4.64-.84 1.38a22.54 22.54 0 00-3.65 1.77c-.59.56-2.23 2.06-2.23 2.06-.54.08-1.58-.56-1.81-.29A12.85 12.85 0 01249.1-29c-.51.3-2.83 2.61-3.54 2.36-.36-.1-.82-.52-1.07.08l-.57 1.31a4.54 4.54 0 00-2.37 0l-.6.13h-.1a4.26 4.26 0 00-.47 1.11c-.08.27-.91.53-1.84.59l-.83 1.3-.42.71a2.85 2.85 0 00-1.29 1.18c-.07.26-.78.42-1.58.33l-.74.86-.66.78a10.5 10.5 0 00-2.8.8 19.22 19.22 0 00-2.87.72s-.09 0-1.22.17h-.06a11.38 11.38 0 00-.15 1.66c0 .35-.45.31-1-.08h-1a2.16 2.16 0 01-2-.52l-.52.41c-.14.12-.33-.19-.43 0-.45 1.18-1 .79-1.43.7l-.57-.09c-.5.84-1 1.3-1.19.86v.1c-.41 1-.87.73-1.33.75h-2.62c-.2.34-.61.26-.91-.19l-.2.19a23.65 23.65 0 00-1.73 2l-.4.46a.54.54 0 00-.86-.22 1 1 0 00-.2.29c-.06.33-1-1.05-1.35-.51a16.19 16.19 0 00-.82 2.11c-.06.21-.4 0-.51 0s-.17.72-.16.95.54.42.69.42a8.41 8.41 0 011.25 1.08c.2.2.41-.18.42-.34a13.87 13.87 0 01.92-1.6c.24-.36 1.28 0 1.6-.68s.69-.33.72-.08.81.69 1 .77.46-.31.49-.89v-.3l.07-.44c.1-.39 1.37 1 1.69.77a1 1 0 011 0c.1.09 1-.93 1.36-.8a9.82 9.82 0 011.2.63l.14-.46c.36-1.19.77-.86 1.12-.61l.4.27a8.86 8.86 0 001.23-1.59c.15-.28.48-.18.75.17l.22.26.23.26a7 7 0 00.89-.91l.24-.15.26-.17c.24-.25.67-.08 1 .38l.12-.26.58-1.19a7.13 7.13 0 002.13.38c.25 0 2.36-2 3.1-2.08s2.24-.66 2.59-.7 2.16-.68 2.74-.82a2.69 2.69 0 011.54 0l.23-.72c.12-.34.34.21.56-.19l.18-.32a3.9 3.9 0 002.19 1.3l.87-2.15c.32.16-.74 4.81-.72 4.91a7.24 7.24 0 01-.47 2.14l-.41-.85c-.32-.61-.7-.75-.91-.34l-.55 1.13a1.75 1.75 0 00-1.72 1.15l-.3-.1a3.26 3.26 0 00-2.67.29 8.19 8.19 0 00-2.38 2.93c-.06.32-.74.6-1 .6s-.1-.59 0-.73a5.7 5.7 0 00-1-2.2l-.5.89c-.4.72-.76.77-1.12.58s-.79 1-1.22.84l-.21-.07a21.56 21.56 0 00-3.72 1 5.91 5.91 0 00-.23 1.11c0 .21-.35.56-.75.8l-.33-1-.2-.7a1.36 1.36 0 01-1.22.14l-.31.26a11.48 11.48 0 01-2.08.81l-.34.15c-.36.33-.87.06-1.13-.61a4 4 0 01-1.55.45c-.44-.11-.81 1.53-1.3.6s-1.93-1.14-2.08 0c0 .13-.14.23-.19.14l-.27-.53c-.32 0-5.59 1.3-6 1.3h-1.71c-.43.33-2.37 1-2.46.67-.38-1.31-.83-.44-1.23-.74h-.07a6.35 6.35 0 01-.18-1.06c0-.28-.51-.5-.71-.5s-.33-.87-.32-1.16.26-.17.3-.12a3.6 3.6 0 001-.3c.23-.1.22-.89.18-1s-.51.17-1.07.65l-.46-.73c-.45-.73-1-.81-1.35-.28-.53.77-1 .54-1.56.62a15.84 15.84 0 01-2 0h-.06a8.26 8.26 0 00-.1 1 1.36 1.36 0 00.44.66c.13.09.2.76.2.89s-.44.89-.57.54-.52-.24-.88.26l-.18-.37c-.45-1-.83-1-1.27 0-.11.24-.34.35-.41.12l-.42-1.43a.76.76 0 01-1.09-.45c0-.26-.26.72-.33 1.13s-.34.28-.4.15-.29.18-.33.27-.44-.26-.89-.76l-.25.45c-.58 1-1.21 1-1.78 1.66l-.54.65a8.45 8.45 0 00-1.51-.09l-.17-.36-.35-.42c-.39 0-1.34.84-1.57.84s-.51.86-.54 1.12-.24-.76-.31-1.2-1-.31-1.3-.24a3.78 3.78 0 01-1.83-.34l-.62-.14h-.22c-.26.41-1.67-.56-2.12-.36a3.11 3.11 0 00-1.08 1.3 3.52 3.52 0 00.15 1 4.53 4.53 0 001.37 1 .69.69 0 00.82-.31c.05-.15.58 1.21.83 1.07s.43.31.42.53-.71.62-1 .44a7.36 7.36 0 00-1.59-.67h-1.07a2.75 2.75 0 01-2.2-.57c-.34-.33.14-1.62.39-2s.69.34.79.77.37.28.42.14a10.16 10.16 0 00-.1-1.65c0-.32-1.29-.6-1.74-.6s-1 1.54-1.07 2.08-.24.55-.29.38-.27.67-.49 1.87l-.23 1v.16a4.43 4.43 0 010-2.17A26.36 26.36 0 00169-3c0-.72-.27-.92-.36-.79a39.4 39.4 0 01-6.33-.19s-1.46.1-1.95-.83l-.24-.45c-.43.54-1.12 0-1.3.18s-.71.93-.85.93h-5.67a7.8 7.8 0 01-1.6-.5 6.67 6.67 0 00.11 1.48c.05-.17.29.56.37.91a1 1 0 00.63.65c.12 0 .27.73.28 1s1.63.42 1.84.5a5.66 5.66 0 01-.26 2.73c-.26.28-1.58 0-2-.19a2.59 2.59 0 01-1-1 15.14 15.14 0 010-1.65c0-.36-.49-.66-.66-.66s-.51.74-.58 1-2-.72-2-.72c-.5-.61-1.49-.09-1.75-.29s-.3-1.46-.26-1.81-.31-.81-.45-.59c-.57.85-3.56-.11-3.68.13s.67 1.89.63 2.17c.06.43 1.2 1.13 1.35 1a9 9 0 011.84.56 5.6 5.6 0 01.16 1.13c0 .22-2.52.57-2.89.76s-1.64-1-2-.81-.47 1-.18 1.71l.48 1c.17 1.31-.6 2.44-.89 2.22a28.29 28.29 0 00-2.46-1.42l-1 1.8a3.49 3.49 0 00-1.19-.19l-.8-2c-.48.28-1.18.68-1.55.87l-1.22-.29a3.34 3.34 0 01-.06-2l.03-1.35c-.36-1-.75-.62-1.12-.7a8.6 8.6 0 01-1.89-.77 15.13 15.13 0 00-3.12.19 6.76 6.76 0 01-.85.67s-.55-.87-.78-.88h-4s-3.44-.58-4-.81-1.07-.8-1.65-.77c-1.18 0-3-1.48-4.34-.63-.62.39-2-.72-2.61-.43l-.42-.68c-.54-.86-2.47-1.39-2.47-1.39-1-.45-2.42-2.15-2.67-2.06s-1-.59-1.72-1.5l-1 1.57c-.32.19-1.17-.94-1.69-.63a7.83 7.83 0 01-1.77-1.35A3.25 3.25 0 0093.06-9c-.25 0-.93-.83-1.07-1.08s-1.42.91-1.81.14-.84-.52-.88-.17-1.79-1.49-2.5-1.8c-.5-.21-6.8-1.09-6.8-1.58s-1.77-1.75-1.77-1.75c-.76-.39-4.58-1.7-5.06-2-.23-.16-2.1-1.4-2.51-1.23-.18 0-.37-.63-.56-.69S68.52-20 68.52-20a21.48 21.48 0 00-3.55-1c-.72 0-6.09-2.47-6.09-2.47A2.85 2.85 0 0057.09-22c0 .3-2.85-.22-2.85-.22a8.86 8.86 0 01-3.36-.18c-1.19-.45-7-.77-7.12-.8s-1.57-1.31-2.08-1-1.68.92-2.61 1.48c0 0-1.33-1.48-1.5-1.14-.5 1-1 .61-1.55.76-.16 0-1.94 1.74-2.67 2.31-.06-.22.34-1.52-.13-2-.14-.15-2.3-.07-2.79-.65-.09-.32-2.53.07-2.84-.14-.28-.05-1.77 1.82-2.08 1.9-.47.28-2.22 1.09-2.59 1.42a14 14 0 00-2.72.34c-.37.21-2.81.22-3.61.47 0 0-2.13-1.46-2.52-1.3a7.14 7.14 0 01-3-1.15c0-.25-3.28.17-3.74.77-.18.28-.14-1.26 0-1.57s-1.5-1.89-1.77-2.72c-.16-.48-1.93-1.55-1.53-2S4-29.07 3.7-28.64s-.78-5.07-.63-5.79 1.33-1 1.59-1.3c1.61-2.21-.82-6.09 1.21-7.36 1.55-1-2.47-6.12-.41-8.66s.33-5.17-1.67-5.25zm155.55 13.1c-.27 0-1.27-.34-1.56-.31-3.73.34-10.73-.82-12.26-.23a3.74 3.74 0 01-1.39-.4c-.37-.19-.73.41-.74.58a4.21 4.21 0 00.08.87 28.16 28.16 0 004-.34l.64 1.51c.46-.53.88-.87.95-.68s.57-.38 1.09-1.31l.56 1.5c.19.51.59-.18.85.16s.36-1.65.62-.26c0 .16.67-.68.67-.68l1.68.6a9.07 9.07 0 002 .52 5.89 5.89 0 011.85-.94l.88.69.19.15c.25.19.66-.17.76-.45s.24-.1.27 0 .09.1.1 0a1.73 1.73 0 00-.1-.45c0-.09-.08-.11-.09-.08s0-.39 0-.54.21-.27.29-.27a12.89 12.89 0 005.78 2.38c.34 0 .71-.49 1 .69.07.27.36.09.49-.21.28-.64.47-.35.76 0a.75.75 0 001.23-.12l.41-.51a.83.83 0 001.24.2l4.73-.08c.37-.31 1.81.69 2.28 0s1-1 1.27-.65l.24-.36c.46-.68.84-.95 1.28.16l.14.34a1.35 1.35 0 011.42-.09c.27.18.72-.38.86-.77s.28-.58.32-.43.29-.49.36-.72.46-.14.86.23l1.2-.31a6.57 6.57 0 012.79-.06l.53-.37a1.61 1.61 0 011.63-.06c.78.31.9-1 .9-1 .38.44 2-.85 2.65-.74a6.83 6.83 0 003.21-.1c.58-.4 1.41.5 1.62.1s1-1.63 1.18-1.54 1.75-.21 1.81 0-.11-1.5-.46-1.71l-.32.85c-.12.31-.41-1.07-.68.13-.09.39-.41.15-.62.15a5 5 0 01-1.63 0 3.26 3.26 0 00-2.32-.08 20.57 20.57 0 01-4.64 1.7 5 5 0 00-1.71.24 2.8 2.8 0 01-1.15-.07A2.93 2.93 0 00188-47l-1.31.88-.88-.61c-.52.56-1 .26-1 0s-.46-.58-1-.58h-.46a4.83 4.83 0 00-1.42 0l-.47.13c-.52.3-1.45-1-1.69-.68s-1.05.11-1.35.25-.77 2.61-1 2.87a11.07 11.07 0 01-1.38 1l-.63-1.45a5.65 5.65 0 01-1.49 1h-4c-.09.3-.61.52-1.16.48l-.36-.72c-.45-.87-.75-.36-1.16.1l-.33.35c-.49-.39-1.41.66-1.7 1s-.59-.31-.61-.51a2.77 2.77 0 00-2.11-.62.92.92 0 01-1.2-.6c0-.33-.5-.33-.54-.62s-.1-.23-.15 0a3.3 3.3 0 01-1.21 1.32zM133.7-6.19l-.18-.28c-.35-.55-.63.87-1 .14s-.85-.13-1.29-.13h-.39a2.59 2.59 0 01-1.45-.5l-.26 1.18c0 .12-.13.19-.22.15a.16.16 0 01-.08-.06 4.06 4.06 0 00-3.74-2.09 11 11 0 00-2.45.76c-.08.13.6.77.88 1a4.15 4.15 0 002.21-.06l.82 1.21c.37.55.7-.74 1.14-.09s.85.09 1.29.12h.43c.47.29 1.2.74 1.61 1l.4-.2a1.91 1.91 0 011.41 0c.3.09.59.59.89.73l.29.13c.28-.06 1.72.77 2.22.37l.76-.88c.33.27 1.25.79 1.61.51s1.35.79 1.35.79c.41 0 .77-1.4.7-1.67h-.05c-1.22.57-1.46.43-1.46.43-1.18-.68-2.73-1.56-3.45-1.92l-.69-.17h-.22c-.24-.4-.48-.61-.52-.45s-.26.17-.56-.02zm67.9.43c.23 0 .59-.62.65-.88s.52-.36 1-.2l.41.43.41.43a3.46 3.46 0 001-1.3c.08-.27-.76-1-1.06-1.18a1.51 1.51 0 00-1.28 0c-.21.2-.77.61-1 .38a.45.45 0 00-.72 0 1.9 1.9 0 00-.23.72c.04.19.59 1.6.82 1.6zm-52.85.45c-.39 0-.74.52-.78 1.21l-.06.41v.3a.72.72 0 00.25.82.41.41 0 00.18 0l.28-.08c.21-.06.42-.45.63-.41h.27c.34.34.62.24.62-.2s-1-2-1.39-2zm92.67-7.45a4.69 4.69 0 000-.53.57.57 0 000-.26 1.13 1.13 0 000 .26 2.81 2.81 0 000 .58z" transform="translate(4.42 101)"/><path class="cls-1" d="M211.13-68.32c-.08-.5-1.77 1.21-1.78 1.16a9.32 9.32 0 00-2.41.54 6.38 6.38 0 00-2 1.2 4.22 4.22 0 00-.65 1.23c0 .26.68.49 1 .49s0 1.07-.19 1.51c-.25.69-.34-1.22-.63-.37-.13.4-1.09 1.1-.55 1.31s-2.34 2.49-2.34 2.49c-.91-.5-.34-2.61-.34-2.79a8 8 0 00-3.07-1.45h-.75c0 .49-.08 1-.1 1.46s-.63.76-1.37.93c0 0-1.65 1.78-2.13 1.4s-2.21.25-2.21.25a7.19 7.19 0 00-2.43 1c-.07.25-2.19-.34-2.15-.18a3.27 3.27 0 01-.73 1.14c-.23.24-.62-.82-.7-1.3s-1.71 1.43-1.93 1.39 0-.74 0-.88a17.71 17.71 0 00-.09-3.09c-.09-.71.32-.61.51-.74s.17-1.23.2-1.31l.28-.56c.3.41.91 1.14 1.05 1a8 8 0 00.67-1.09l.48 1.49c.3.29 1.36-1.08 1.38-1.39s.29.87.37 1.3.85-.72.95-.69a6.7 6.7 0 01-.06 1.5s.83 1.31 1.17 1.11 0-1.77 0-2.41a4.89 4.89 0 001.35-2.62v-.11a4 4 0 01.34 1.21c0 .31.64 0 .85 0s.41.56.42.76.51.36.69.36.61-1.11.71-1.49 2-.22 2.06-.09a5.08 5.08 0 00.23-1.41 4.23 4.23 0 01.43-1.3c.1-.16.37.86.44 1.3s.23.69.28.68a9.42 9.42 0 00.16-1.59c0-.47.86-1 1.86-1.22l3.17-.58c.5.52 1.06.78 1.24.57 0 0 .69.76 1.07-.17.25-.6.72-.34 1.06 0s1.13-.48 1.18-.52c.71-.54 1.41-1.46 2.16-1.13.28.12.9.14.94.28s-.01 1.93-.09 1.42zm18.95-9.89A5.72 5.72 0 01233-79.8s3.18-.39 3.28-.47l.26-.22c.28-.29 1 .9 1.16 1.5s1.1 1.24 1.39.59.68-.67.74-.49.72-.57 1-.39a4.4 4.4 0 002.07-.42.86.86 0 011 .19c.11.18-.44 1-1.15 1.75 0 0-.88-.3-1-.12l-.59 1.45a3.51 3.51 0 00-2.59 0l-1.32.13a26.23 26.23 0 00-2.59.76c-.35 0-.83-.79-.88-1s-.61 0-.84.16c-.48.28-1 0-1.46.43l-1 .86c-1.16.63-3.33 1.16-3.79 1.41s-1.09 1.54-1.23 1.31a3.89 3.89 0 00-2.06-.07c-.3.15-.59.64-.89.73a6.24 6.24 0 01-1.3 0 13.15 13.15 0 00-2.06.88l-.39-.07c-.35 0-.8.88-1.06.38l-.63-1.23c-.42 1.15-.95 1.9-1.18 1.65 0 0-1 1.4-1.39 1.44l-1 .09a5.81 5.81 0 01-2-1.07c0-.15 1-.63 1.36-1.15s1.24 0 1.48-.24 2.23-2.44 3-2.61 4-.93 5.22-1.38l1.18-1.53s5.8-.77 6.34-1.66zm38.43 52.59a1.41 1.41 0 00-.57.42l-1.24-.62a9.46 9.46 0 00-2.26 1.92 3.18 3.18 0 00-2.19.95c-.12.15-.9-.78-.9-.78a1.35 1.35 0 01-1.14.24c-.1-.1-3.11 2.87-4.61 3.61l-1.6 1.64-2.09 1-.73 1.05c-.63.24-1.32-1.31-1.38-1.77s-1.33-.47-1.8-.3a1.65 1.65 0 00-.75 1.31c0 .26.32 0 .42-.18s.15.57.14.87-.53.21-.7.09-.38.36-.39.53a7.22 7.22 0 01-1.29 1.3c-.33.26-.59-.51-.59-.85a1.19 1.19 0 01.56-.81c.14-.05 0-.68-.31-1.41h-.57c-.34.13-.49-.64-.43-1s.53-.43 1-.16l.34-.61c.43-.76.83-.47 1.24-.67a11 11 0 011.32-.76c.91-.31 1.82.22 2.75-.65a4.19 4.19 0 011.75-.9l.59-.19a6.67 6.67 0 012.64-.41l.73-1a1 1 0 011.14-.4c.38.12.71-.54 1.08-.5s.75.33 1.15-.38.84-.26 1.26-.34a18.07 18.07 0 002-1.54L264-27c.22 0 .52.19.74-.4l.29-.75a9.22 9.22 0 002-1.95l.74.1a3.63 3.63 0 01.16.93 2.72 2.72 0 01-.31.81c-.09.16 1 1.31 1.38 1.45s.59.38.35.55c.13.04-.35.91-.84.64zM165.89-56.3c.36.64.83 1 1 .94s.89-4.24.6-4.29c-1.82-.25-1.13 2.42-2.78 1.74a6.76 6.76 0 00-.86-2.3c-1.15.18-.57 2.09-2.61 1.15-1.57.94-12.13 1.92-14 1.31 0 0 .62-1.31 1-1.31 0 0 1.62.8 1.79.82.9.16.56-1.22.47-1.39a1.31 1.31 0 00-1.35-.27 14.32 14.32 0 00-3.34-.71 1.92 1.92 0 00-.11 1.61 2.19 2.19 0 01.24 1.74c-.26.43-1 .16-1 .9s2.4 1.12 2.63 1.23 1.81-.89 1.81-.89 1.19.39 2.32.68c0 0 7.49.08 7.69.25.42.34.79-.63 1.25-.11s4.47.13 4.76.17zm12.26-16.4c0-.13.5.24.6 0s.79.17.85 0 4.65-1.59 4.7-1.75a4.3 4.3 0 00.1-1.08h-.05c-.44-.24-.92.55-1.32-.78 0-.13-3.05 1.62-3.05 1.62-.6-.42-1.22-.64-1.37-.49a1.82 1.82 0 01-1.41 0c-.47-.21-1.93 1.06-2.23 1.15a6.75 6.75 0 01-2.83 0c-.59-.31-2.48-1.3-2.78 0-.05.26-.31.25-.41 0-.67-1.53-1.45-1.12-2.08-.56l-.75.68a14.49 14.49 0 00-2.77-.42c-.38.18-1.57.46-1.75.84s-.77-1.49-1.08-1.78c0 0-1.11.11-1.41.6a4.36 4.36 0 01-1.47 1c-.73-.17-1.64-.39-1.79-.39-.41 0-.83.46-1.25-.48l-.23-.53a1.5 1.5 0 00-.76.64 3.74 3.74 0 00-.13 1.06c.07 0 .5 1 .92 1a2.87 2.87 0 011.59.06c.36.3.65-1.3 1-.22.06.2.38-.61.42-.44l.28 1.08c.35-.29 8.16-.73 8.72.16l.31.48a1.08 1.08 0 011.77 0s2.32-.32 2.69-1 6.93-.32 6.97-.45zm82.08-8.3c-.15.22-.74 0-1.31-.47l-.27.52c-.39.73-.75.6-1.13.64a1.55 1.55 0 00-1.32.74c-.41.58-.93-.68-1.32.83 0 .13-.14 0-.21 0-1 .26-3.65 1-4.37 1.07a10.12 10.12 0 00-2.88 2.67c-.19.29-.77 1.45-.66 1.62s.82-.39 1.29-1.69l.62 1.87c.08.21.67-.4.67-.4a2.6 2.6 0 00.65-1.06c0-.24.31-1.2.36-.59a15.93 15.93 0 00.29 2.09 3.14 3.14 0 00.39.48s.63-1.3.77-1c.27.53.4-.21.59-.2a4.35 4.35 0 001.76 0 5.6 5.6 0 012.52-.55c.2.15.87-1 1.17-1h.77c.35-1.3.8-2.37 1-2.37a1.35 1.35 0 00.93-.91c.09-.58-.16-2.48-.31-2.29zM165.85-1.28l.64.29.24.11c.29-.32.64 1.45.69 2.29A1.66 1.66 0 01166.23 3c-.28 0-.5.32-.5.69a.38.38 0 01-.26.35c-.09 0 .2-.21.65-.45l.22.45a.7.7 0 00.81.51h3.39a2.51 2.51 0 01.21 1.18 3.61 3.61 0 01-2.2.38h-1.43a9.21 9.21 0 00-3.47.09 3.66 3.66 0 01-1.31.39 13.09 13.09 0 01-2.2-.84 21.72 21.72 0 00-3-.45c-.83 0-1.22-1.06-1.14-1.31s.8-.44 1.05-.44a.52.52 0 00.46-.26 7.51 7.51 0 00-.94-1.14 2.64 2.64 0 01-.1-1.66 10.33 10.33 0 000-2.08c0-.43.09-.41.28 0l.06.57.06.49c0 .63.22 1 .26 1a10 10 0 00.14-1.47.88.88 0 01.49-.7 11.47 11.47 0 01.69 2.22 1.66 1.66 0 00.59 1c.1 0 .16.67.15.86a1.83 1.83 0 01-.4.71 1 1 0 00-.17.47 7.44 7.44 0 002.1.15H162c.27 0 1.27 1.31 1.51.54a1.06 1.06 0 00-.25-1.25.41.41 0 00-.11-.07.44.44 0 01-.34-.45 1.21 1.21 0 00-.23-.5.79.79 0 01-.08-.42 2.1 2.1 0 01.92-.15c.24 0 .58-.51.77-1.14s.93-2.11 1.66-1.55z" transform="translate(4.42 101)"/><path class="cls-1" d="M243-75.47a4.42 4.42 0 01.38-1.2c.1-.18.83 1.09.92 1.09s.21-.66.23-.88a4.41 4.41 0 01.66-1.12c.17-.21.47.18.54.42a8.12 8.12 0 01-.31 1.49c0 .09.39.15.53.15a7.31 7.31 0 01.47 2.14.84.84 0 01-.53.91c-.14 0-.3-.87-.31-1.06s-.5-.37-.67-.37-.89 2.16-1.13 2-1 .72-1.79 2l-1.49-.22a.91.91 0 01-1.46-.34c0-.34-.17.38-.21.65a14.12 14.12 0 01-2.3 1.75 1.26 1.26 0 01-1.19-.74 7.77 7.77 0 00-.41 1.47c-.11.5-.48-.34-.57-.74a6.05 6.05 0 011.08-2.78l.85 1.76a.68.68 0 01.75-.3 6.72 6.72 0 00.7-2.29c.06-.87.33-.28.4.12s.4.13.48 0a7.2 7.2 0 00-.2-1.8c-.1-.42-.8-.76-1-.76s-.24-.25 0-.55l.14-.51c.28-1 .41.41.62.24s.39-.49.59-.55a4.27 4.27 0 011-.12c.24-.23.43.18.42.46s-.73.48-1 .48-.47.88-.46 1.15.47 0 .64-.09a.52.52 0 01.73.2 6.71 6.71 0 01.4 1.51c0 .21.54-1.2.77-1.1s.59-.45.66-.71.27.61.32 1 .27-1.06.39-1.15a5.14 5.14 0 00.36-1.61zm-72.8 17.86c.42-.39.05-.71-.13-.71s-.36-.65-.36-.82a5.39 5.39 0 01.4-1.06c.11-.18.64.12.77.26a8.6 8.6 0 01.51 1.77c.07.4.18.52.25.26a18.28 18.28 0 00.49-2.22c0-.47.32-.28.4-.12s.25-.08.3-.22.43.38.55.6a6.68 6.68 0 01.25 1.67c0 .3 2.56-.3 2.56-.3s.26-2.35.44-2.23a6.39 6.39 0 01.68 1.91c.08.4.36-.64.43-1.06s.77-.75 1-.75.72 1.06.82 1.5a10.6 10.6 0 00.86 1.56c.14.33-1 1.75-1.51 1.44a4 4 0 00-3 .45 1.61 1.61 0 01-2-.23.53.53 0 00-.84.13c-.22.36-1.08-.75-1.37-.54s-1.62 1.74-2 1a9.09 9.09 0 01-.67-1.9c0-.15.26-.23.58-.19zm19.13-18.12a3.73 3.73 0 001.52.13h.75c.27 0 .57-.43.81.58 0 .17.15.28.28.25a.2.2 0 00.12-.08c1-1.31 2-1.11 3-1.7s2.28-.12 3.39-.76l.61-.36c.69-.17 1.25-.52 1.25-.79a3.37 3.37 0 00-1.41-1.9l-.65 1.59c-.05.12-.14 0-.22 0l-2.07.38a11.51 11.51 0 00-2.54.68c-.2.16-.84-.15-1-.35s-.92.57-1.27.34l-.37.43c-.32.39-.72 0-1.07.11l-.37.19a3.52 3.52 0 00-.76 1.26zM202-80.21a2.33 2.33 0 00-.43 1.86c.18.42 1.11-.28 1.16-.15a1.29 1.29 0 001.19-.11A8.33 8.33 0 00206-80a4.18 4.18 0 00-.14-1.07v.06c-1.07 1.31-2.17.61-3.26.75zm-14.49 5.38c.08-.39.31-.6.51-.45s.8.27.87 0a11.5 11.5 0 00.2-1.31c0-.08-.16-.1-.3.13s-.68.69-.92.5-.86.53-.92.34a.36.36 0 00-.57-.15.58.58 0 00-.11.15c-.25.43-1-.51-1.12-.26a5.84 5.84 0 00-.42 1.68l.07.18.27.72a4 4 0 011.1-1.3l.29-.08a4.18 4.18 0 011 0zM162.48-43c0-.12 0-.22-.12-.22s-.24 0-.25.13a.67.67 0 00.12.35c.06.05.24-.14.25-.26z" transform="translate(4.42 101)"/></g></svg>